<?xml version="1.0" encoding="UTF-8"?>
<svg id="Layer_2" data-name="Layer 2" xmlns="http://www.w3.org/2000/svg" viewBox="0 0 433.4 153.42">
  <defs>
    <style>
      .cls-1 {
        fill: #333;
      }

      .cls-1, .cls-2, .cls-3, .cls-4, .cls-5, .cls-6, .cls-7, .cls-8, .cls-9, .cls-10, .cls-11, .cls-12, .cls-13, .cls-14, .cls-15, .cls-16, .cls-17, .cls-18 {
        stroke-width: 0px;
      }

      .cls-2 {
        fill: #0b0606;
      }

      .cls-3 {
        fill: #191919;
      }

      .cls-4 {
        opacity: .37;
      }

      .cls-4, .cls-8, .cls-13, .cls-14, .cls-17 {
        fill: #fff;
      }

      .cls-5 {
        fill: #e6e6e5;
      }

      .cls-6 {
        fill: #b7b7b7;
      }

      .cls-6, .cls-13 {
        opacity: .2;
      }

      .cls-7 {
        fill: #e3e3e3;
      }

      .cls-8 {
        opacity: .11;
      }

      .cls-9 {
        fill: #999896;
      }

      .cls-10 {
        fill: #272626;
      }

      .cls-11 {
        fill: #989898;
      }

      .cls-12 {
        fill: #4e4e4e;
      }

      .cls-15 {
        fill: #db2a27;
      }

      .cls-16 {
        fill: #ccc;
      }

      .cls-17 {
        opacity: .33;
      }

      .cls-18 {
        fill: #232020;
      }
    </style>
  </defs>
  <g id="Layer_1-2" data-name="Layer 1">
    <g>
      <path class="cls-9" d="M433.4,146.13c0,4.02-97.02,7.29-216.7,7.29S0,150.16,0,146.13s97.02-7.29,216.7-7.29,216.7,3.26,216.7,7.29Z"/>
      <g>
        <path class="cls-7" d="M11.67,90.34c0,7.68,1.13,18.17,8.6,20.02,5.22,1.29,12.39,2.36,22.07,2.54,1.94.04,4.74.2,8.13.46.08-1.13.19-2.31.31-3.54.16-1.59.42-3.14.78-4.63,3.96-16.71,19.85-27.36,33.91-27.36,15.31,0,25.53,5.11,34.95,18.56,3.35,4.79,5.14,10.44,6.04,15.72.54,3.11.77,6.1.83,8.69l176.92,2.68h7.9c.08-2.61.23-5.64.52-9.11.08-.9.16-1.84.26-2.81,1.88-19.35,19.37-31.99,34.69-31.99,15.31,0,25.54,5.1,34.95,18.54,3.54,5.06,5.33,11.08,6.18,16.61.5,3.16.69,6.18.7,8.76,0,0,15.75,2.18,24.02-2.13,1.7-.89,4.29-3.89,5.5-5.96.3-.52.51-.98.59-1.35.94-3.85,2.4-11.26,2.15-19.81-.08-2.99-.38-6.12-.98-9.29-.44-2.44-1.08-4.87-1.94-7.29-2.26-6.37-8.03-11.2-15.6-14.94-14.63-7.23-36.03-10.4-51.92-12.78-24.12-3.62-30.98-6.72-44.23-14.56-13.27-7.83-37.86-22.22-66.2-30.05-28.34-7.85-85.83-6.88-120.09,1.92-33.33,8.57-60.42,23.95-60.42,23.95,0,0-25.54,2.75-36.24,5.92-2.31.69-3.93,1.39-4.45,2.09-1.04,1.39-1.9,3.22-2.61,5.29-.31.86-.59,1.78-.85,2.72-1.96,7.15-2.57,15.84-2.66,19.23-.01.34-.01.62-.01.85l-1.8,23.04Z"/>
        <path class="cls-3" d="M381.32,62.91c10.86,14.33,25.14,22.26,39.39,22.04-.35-1.91-.82-3.84-1.43-5.75-.16-.51-.32-1.04-.51-1.55-2.26-6.37-8.03-11.2-15.6-14.94-7.23-1.31-14.57-1.14-21.85.19Z"/>
        <path class="cls-14" d="M17,44.5c27.49,1.44,208.09,10.93,243.85,12.02,38.72,1.2,125.87,12.7,125.87,12.7l-5.4-6.31s-13.11-3-43.72-8.37c-30.63-5.37-94.34-9.53-139.61-10.24-38.3-.62-142.68-5.64-173.92-7.17-2.31.69-3.93,1.39-4.45,2.09-1.04,1.39-1.9,3.22-2.61,5.29Z"/>
        <path class="cls-14" d="M302.42,107.4c-.68.23-80.53,1.14-99.18,1.14-18.65,0-62.56-3.34-62.56-3.34,0,0,63.69-2.09,83.49-3.36,19.79-1.27,78.25,5.56,78.25,5.56Z"/>
        <path class="cls-12" d="M100.28,39.21l80.07,3.24,17.48.71,82.51,3.35.58-3.74,1.08-7.02c-2.44-1.45-5.05-2.93-7.85-4.45-20.17-10.94-30.71-14.44-47.49-19.8-16.77-5.34-34.29-5.37-34.29-5.37l-40.41,1.31c-15.5.5-30.12,7.28-40.53,18.77-.03.04-.07.07-.09.11-4.19,4.6-8.26,9.29-11.05,12.89Z"/>
        <path class="cls-11" d="M111.33,26.32c26.9-7.21,54.79-10.93,82.55-9.35,30.52,1.74,60.91,10.03,87.04,25.81l1.08-7.02c-2.44-1.45-5.05-2.93-7.85-4.45-20.17-10.94-30.71-14.44-47.49-19.8-16.77-5.34-34.29-5.37-34.29-5.37l-40.41,1.31c-15.5.5-30.12,7.28-40.53,18.77-.03.04-.07.07-.09.11Z"/>
        <polygon class="cls-18" points="185.71 6.34 188.81 42.8 197.68 43.91 192.13 6.14 185.71 6.34"/>
        <polygon class="cls-18" points="208.5 43.6 198.51 44.31 192.37 6.13 202.61 6.75 208.5 43.6"/>
        <path class="cls-3" d="M200.48,114.95l-58.19-.78c-.18,0-.35-.1-.44-.27-.17-.32-17.11-31.8-25.7-37.14-2.37-1.47-4.51-2.7-6.37-3.64-3.71-1.89-6.65-5-8.28-8.75h0c-2.99-6.9-6.34-15.91-5.32-19.65.31-1.11,1.55-3.07,3.69-5.82,2.52-3.26,6.28-7.64,11.17-13.03,10.46-11.54,25.36-18.44,40.89-18.94l40.41-1.3c.28-.01.48.18.52.43l5.46,37.04.16,1.13s.67,4.5,1.47,12.45c.79,7.95,1.02,57.28,1.03,57.78,0,.14-.05.27-.15.36-.09.09-.22.15-.36.15h0ZM151.97,7.94c-15.26.49-29.9,7.27-40.18,18.61-4.87,5.37-8.61,9.73-11.12,12.97-2.57,3.3-3.33,4.8-3.52,5.48-.74,2.69,1.13,9.43,5.27,18.97h0c1.53,3.54,4.31,6.47,7.81,8.25,1.88.96,4.05,2.2,6.44,3.69,8.49,5.28,24.15,33.98,25.92,37.26l57.38.77c-.03-5.3-.28-49.7-1.02-57.17-.8-7.91-1.46-12.35-1.46-12.4l-5.56-37.72-39.96,1.29ZM101.96,64.17h.01-.01Z"/>
        <path class="cls-3" d="M199.98,114.45c0-.5-.24-49.78-1.02-57.68-.8-7.91-1.46-12.35-1.46-12.4l-5.63-38.16c-.02-.15.02-.29.12-.4s.24-.17.38-.17h0c.18,0,17.79.09,34.44,5.39,17.09,5.45,27.72,9.06,47.58,19.83,2.87,1.56,5.45,3.02,7.86,4.46,14.97,8.93,23.04,16.2,23.12,16.28.07.07.13.15.15.25.04.16,4.15,16.45,4.15,25.28,0,8.83-5.13,36.26-5.35,37.42-.04.24-.25.41-.5.41h-103.34c-.28,0-.5-.22-.5-.5ZM308.66,77.12c0-8.26-3.67-23.22-4.08-24.88-1.02-.9-8.92-7.75-22.85-16.06-2.4-1.44-4.97-2.89-7.83-4.44-19.82-10.75-29.88-14.17-47.4-19.76-14.79-4.71-30.37-5.27-33.55-5.34l5.38,36.45.16,1.13s.67,4.5,1.47,12.45c.75,7.52,1,52.03,1.02,57.28h102.42c.65-3.53,5.26-28.67,5.26-36.83Z"/>
        <path class="cls-6" d="M115.38,44.82c-1.28.45-2.54,1.23-3.11,2.47-.74,1.63-.04,3.64,1.27,4.85,1.31,1.22,3.09,1.78,4.85,2.1,1.89.35,3.92.45,5.67-.35,1.89-.86,3.86-3.69,2.55-5.72-1.38-2.15-4.3-3.45-6.74-3.78-1.5-.2-3.05-.08-4.49.42Z"/>
        <path class="cls-2" d="M107.85,48.77v.17c.13,2.19,2.95,2.93,3.86,3.01,4.44.36,15.44,1.26,16.46,1,.66-.16,1.31-.5,1.78-.98.26-.27.47-.59.59-.96.38-1.1-.34-2.58-1.44-2.96-1.24-.44-15.4-1.41-18.77-1.55-.66-.03-2.5.23-2.48,2.26Z"/>
        <path class="cls-15" d="M13.49,66.45c9.96-1.41,18.33-4.99,24.25-17.76-.09-.03-.19-.05-.28-.08-6.37-1.79-14.21-2.68-21.3-1.39-.93,3.39-1.56,7.13-1.96,10.48-.46,3.73-.65,6.97-.7,8.75Z"/>
        <path class="cls-3" d="M312.13,123.48l20.62-7.97,23.12-3.05,33.56,11.02c-.07-7.09-1.31-17.41-6.88-25.37-9.41-13.44-19.63-18.54-34.95-18.54-15.33,0-32.81,12.64-34.69,31.99-.46,4.67-.69,8.63-.78,11.92Z"/>
        <path class="cls-3" d="M50.48,113.36l21.24-4.45,33.91,2.06,21.68,9.84c-.19-7.04-1.55-16.81-6.88-24.41-9.42-13.44-19.63-18.56-34.95-18.56s-32.81,12.64-34.69,31.99c-.12,1.22-.23,2.41-.31,3.54Z"/>
        <path class="cls-18" d="M418.95,115.39l-30.23-.67c.5,3.16.69,6.18.7,8.76,0,0,15.75,2.18,24.02-2.13,1.7-.89,4.29-3.89,5.5-5.96Z"/>
        <path class="cls-3" d="M312.65,114.37l-186.18-2.26c.54,3.11.77,6.1.83,8.69l176.92,2.68h7.9c.08-2.61.23-5.64.52-9.11Z"/>
        <path class="cls-18" d="M11.68,90.33c0,7.68,1.13,18.17,8.6,20.02,5.22,1.29,12.39,2.36,22.07,2.54,1.94.04,4.74.2,8.13.46.08-1.13.19-2.31.31-3.54.16-1.59.42-3.14.78-4.63-7.25-.3-20.29-1.14-25.95-3.67-8.03-3.58-13.94-11.18-13.94-11.18Z"/>
        <g>
          <g>
            <path class="cls-1" d="M318.72,116.08c0,17.71,14.36,32.06,32.06,32.06,10.71,0,20.2-5.25,26.01-13.32,3.8-5.28,6.04-11.73,6.04-18.73,0-17.7-14.35-32.06-32.06-32.06-12.07,0-22.59,6.69-28.05,16.55-2.56,4.59-4.01,9.88-4.01,15.5Z"/>
            <path class="cls-11" d="M365.39,96.83c-2.26,3.39-4.8,6.49-7.45,9.47-2.63,3-5.4,5.85-8.26,8.62-2.88,2.74-5.84,5.39-8.94,7.89-3.08,2.52-6.27,4.93-9.73,7.04l4.73,5.08c2.35-3.31,4.98-6.32,7.71-9.22,2.71-2.92,5.57-5.68,8.5-8.37,2.93-2.69,5.93-5.29,9.08-7.74,3.13-2.47,6.37-4.83,9.89-6.89l-5.54-5.87Z"/>
            <path class="cls-11" d="M347.5,92.13c.8,4,1.19,7.98,1.43,11.96.26,3.98.32,7.96.25,11.93-.1,3.97-.32,7.94-.74,11.9-.4,3.96-.95,7.92-1.91,11.86l6.94.24c-.68-4-.95-7.99-1.07-11.97-.15-3.98-.08-7.96.1-11.93.17-3.97.45-7.94.95-11.9.47-3.96,1.09-7.92,2.12-11.87l-8.07-.23Z"/>
            <path class="cls-16" d="M348.95,92.16c.43,4.04.67,8.08.85,12.11.19,4.03.29,8.06.34,12.09.03,4.03.02,8.05-.09,12.07-.1,4.02-.26,8.03-.6,12.03l3.02.19c-.37-4.05-.57-8.09-.7-12.12-.14-4.03-.19-8.06-.19-12.09,0-4.03.04-8.05.18-12.07.13-4.02.32-8.04.69-12.05l-3.51-.17Z"/>
            <path class="cls-11" d="M331.53,101.45c3.39,2.26,6.49,4.8,9.47,7.45,3,2.63,5.85,5.4,8.62,8.26,2.74,2.88,5.39,5.84,7.89,8.94,2.52,3.08,4.93,6.27,7.04,9.73l5.08-4.73c-3.31-2.35-6.32-4.98-9.22-7.71-2.92-2.71-5.68-5.57-8.37-8.5-2.69-2.93-5.29-5.93-7.74-9.08-2.47-3.13-4.83-6.37-6.89-9.89l-5.87,5.54Z"/>
            <path class="cls-16" d="M332.23,100.88c3.19,2.52,6.24,5.17,9.25,7.86,3.02,2.68,5.97,5.43,8.88,8.21,2.9,2.79,5.76,5.62,8.56,8.51,2.8,2.88,5.56,5.8,8.18,8.85l2.25-2.02c-3.16-2.57-6.18-5.25-9.15-7.98-2.98-2.72-5.9-5.5-8.77-8.32-2.88-2.81-5.72-5.66-8.5-8.57-2.78-2.9-5.52-5.85-8.13-8.92l-2.58,2.39Z"/>
            <path class="cls-11" d="M326.82,119.34c4-.8,7.98-1.19,11.96-1.43,3.98-.26,7.96-.32,11.93-.25,3.97.1,7.94.32,11.9.74,3.96.4,7.92.95,11.86,1.91l.24-6.94c-4,.68-7.99.95-11.97,1.07-3.98.15-7.96.08-11.93-.1-3.97-.17-7.94-.45-11.9-.95-3.96-.47-7.92-1.09-11.87-2.12l-.23,8.07Z"/>
            <path class="cls-16" d="M326.72,118.45c4.04-.43,8.08-.68,12.11-.87,4.03-.2,8.06-.31,12.09-.36,4.03-.04,8.05-.03,12.07.07,4.02.09,8.03.24,12.04.58l.19-3.02c-4.05.38-8.09.58-12.12.71-4.03.15-8.06.2-12.09.21-4.03.01-8.05-.03-12.07-.16-4.02-.12-8.04-.31-12.05-.67l-.16,3.51Z"/>
            <path class="cls-16" d="M333.53,133.38c2.85-2.9,5.81-5.66,8.8-8.36,2.99-2.71,6.03-5.36,9.11-7.96,3.09-2.59,6.2-5.13,9.37-7.61,3.16-2.48,6.36-4.91,9.67-7.2l-1.77-2.45c-2.89,2.86-5.88,5.58-8.91,8.25-3.02,2.68-6.1,5.28-9.21,7.84-3.1,2.57-6.24,5.09-9.43,7.54-3.18,2.46-6.4,4.87-9.73,7.13l2.1,2.81Z"/>
            <path class="cls-5" d="M325.59,116.08c0,13.89,11.3,25.19,25.19,25.19,13.89,0,25.19-11.3,25.19-25.19s-11.3-25.19-25.19-25.19c-13.89,0-25.19,11.3-25.19,25.19ZM328.48,119.04c-.13-.97-.2-1.95-.2-2.96,0-1.51.15-2.97.43-4.4.69-3.43,2.15-6.59,4.21-9.27,1.49-1.95,3.31-3.66,5.37-5.03,2.79-1.87,6.03-3.14,9.51-3.59.97-.13,1.96-.2,2.97-.2,1.49,0,2.96.15,4.39.43,3.43.67,6.59,2.14,9.27,4.2,1.95,1.51,3.66,3.31,5.03,5.37,1.98,2.93,3.27,6.35,3.67,10.04.09.81.13,1.63.13,2.46,0,1.32-.11,2.62-.34,3.88-.66,3.81-2.29,7.29-4.62,10.19-1.33,1.66-2.88,3.12-4.63,4.35-3.03,2.14-6.61,3.54-10.47,3.96-.81.09-1.63.13-2.45.13-1.33,0-2.62-.12-3.89-.34-3.81-.66-7.29-2.29-10.19-4.62-1.66-1.33-3.11-2.89-4.33-4.63-2.05-2.89-3.42-6.28-3.89-9.96Z"/>
            <circle class="cls-11" cx="350.57" cy="115.79" r="4.04" transform="translate(-18.11 96.23) rotate(-15.24)"/>
            <path class="cls-5" d="M348.96,115.79c0,.89.72,1.61,1.61,1.61s1.61-.72,1.61-1.61c0-.89-.72-1.61-1.61-1.61s-1.61.72-1.61,1.61Z"/>
            <path class="cls-5" d="M345.85,115.8c0,.66.13,1.29.38,1.86.05.11.11.22.16.31.52,1.04,1.43,1.83,2.53,2.23.03.03.05.04.09.04.48.17,1.01.27,1.56.27.63,0,1.25-.12,1.8-.36,1.06-.44,1.94-1.26,2.44-2.3,0,0,.01-.01,0-.03.31-.61.47-1.29.47-2.02,0-.44-.07-.87-.17-1.28,0-.01-.01-.03-.01-.04-.34-1.18-1.13-2.18-2.18-2.77-.05-.04-.11-.07-.16-.09-.65-.35-1.4-.54-2.18-.54-.48,0-.96.07-1.39.22-.09.03-.19.05-.28.09-1.16.43-2.1,1.32-2.62,2.44-.04.08-.08.17-.11.27-.22.52-.32,1.1-.32,1.71ZM347.75,117.64c-.13-.19-.24-.4-.32-.62-.15-.38-.23-.79-.23-1.22,0-.34.05-.66.13-.96.07-.23.16-.46.27-.66.36-.65.92-1.17,1.6-1.47.22-.11.44-.17.67-.23.23-.04.46-.07.7-.07.48,0,.94.11,1.36.28.26.11.5.26.71.43.44.35.79.79,1.01,1.32.15.34.24.71.27,1.1.01.08.01.16.01.24,0,.35-.05.67-.15.98-.11.35-.27.69-.48.97-.23.34-.54.63-.89.86-.31.2-.66.36-1.02.44-.27.07-.54.11-.82.11-.17,0-.35-.01-.52-.04-.35-.05-.67-.16-.97-.31-.54-.26-1.01-.67-1.33-1.17Z"/>
          </g>
          <path class="cls-10" d="M318.72,116.08c0,17.71,14.36,32.06,32.06,32.06,10.71,0,20.2-5.25,26.01-13.32-7.48,5.26-16.7,8.03-25.85,7.74-8.3-.28-16.84-3.27-22.23-9.61-4.08-4.79-6.04-11.13-6.58-17.41-.43-4.98-.01-9.99.61-14.95-2.56,4.59-4.01,9.88-4.01,15.5Z"/>
          <path class="cls-8" d="M332.23,91.8c6.75-5.4,15.9-7.69,24.4-6.11,8.5,1.58,16.21,7.01,20.57,14.48,4.36,7.47,5.28,16.85,2.47,25.03-.25-10.92-6.98-20.97-16.08-27-9.1-6.03-20.61-8.31-31.37-6.4Z"/>
        </g>
        <g>
          <g>
            <path class="cls-1" d="M56.83,116.08c0,17.71,14.36,32.06,32.06,32.06,10.71,0,20.2-5.25,26.01-13.32,3.79-5.28,6.04-11.73,6.04-18.73,0-17.7-14.35-32.06-32.06-32.06-12.07,0-22.59,6.69-28.05,16.55-2.56,4.59-4.01,9.88-4.01,15.5Z"/>
            <path class="cls-11" d="M103.5,96.83c-2.26,3.39-4.8,6.49-7.45,9.47-2.63,3-5.4,5.85-8.26,8.62-2.88,2.74-5.84,5.39-8.94,7.89-3.08,2.52-6.27,4.93-9.73,7.04l4.73,5.08c2.35-3.31,4.98-6.32,7.71-9.22,2.71-2.92,5.57-5.68,8.5-8.37,2.93-2.69,5.93-5.29,9.08-7.74,3.13-2.47,6.37-4.83,9.89-6.89l-5.54-5.87Z"/>
            <path class="cls-11" d="M85.61,92.13c.8,4,1.19,7.98,1.43,11.96.26,3.98.32,7.96.25,11.93-.1,3.97-.32,7.94-.74,11.9-.4,3.96-.95,7.92-1.91,11.86l6.94.24c-.68-4-.95-7.99-1.07-11.97-.15-3.98-.08-7.96.1-11.93.17-3.97.45-7.94.95-11.9.47-3.96,1.09-7.92,2.12-11.87l-8.07-.23Z"/>
            <path class="cls-16" d="M87.06,92.16c.43,4.04.67,8.08.85,12.11.19,4.03.29,8.06.34,12.09.03,4.03.02,8.05-.09,12.07-.1,4.02-.26,8.03-.6,12.03l3.02.19c-.37-4.05-.57-8.09-.7-12.12-.14-4.03-.19-8.06-.19-12.09,0-4.03.04-8.05.18-12.07.13-4.02.32-8.04.69-12.05l-3.51-.17Z"/>
            <path class="cls-11" d="M69.64,101.45c3.39,2.26,6.49,4.8,9.47,7.45,3,2.63,5.85,5.4,8.62,8.26,2.74,2.88,5.39,5.84,7.89,8.94,2.52,3.08,4.93,6.27,7.04,9.73l5.08-4.73c-3.31-2.35-6.32-4.98-9.22-7.71-2.92-2.71-5.68-5.57-8.37-8.5-2.69-2.93-5.29-5.93-7.74-9.08-2.47-3.13-4.83-6.37-6.89-9.89l-5.87,5.54Z"/>
            <path class="cls-16" d="M70.34,100.88c3.19,2.52,6.24,5.17,9.25,7.86,3.02,2.68,5.97,5.43,8.88,8.21,2.9,2.79,5.76,5.62,8.56,8.51,2.8,2.88,5.56,5.8,8.18,8.85l2.25-2.02c-3.16-2.57-6.18-5.25-9.15-7.98-2.98-2.72-5.9-5.5-8.77-8.32-2.88-2.81-5.72-5.66-8.5-8.57-2.78-2.9-5.52-5.85-8.13-8.92l-2.58,2.39Z"/>
            <path class="cls-11" d="M64.94,119.34c4-.8,7.98-1.19,11.96-1.43,3.98-.26,7.96-.32,11.93-.25,3.97.1,7.94.32,11.9.74,3.96.4,7.92.95,11.86,1.91l.24-6.94c-4,.68-7.99.95-11.97,1.07-3.98.15-7.96.08-11.93-.1-3.97-.17-7.94-.45-11.9-.95-3.96-.47-7.92-1.09-11.87-2.12l-.23,8.07Z"/>
            <path class="cls-16" d="M64.83,118.45c4.04-.43,8.08-.68,12.11-.87,4.03-.2,8.06-.31,12.09-.36,4.03-.04,8.05-.03,12.07.07,4.02.09,8.03.24,12.04.58l.19-3.02c-4.05.38-8.09.58-12.12.71-4.03.15-8.06.2-12.09.21-4.03.01-8.05-.03-12.07-.16-4.02-.12-8.04-.31-12.05-.67l-.16,3.51Z"/>
            <path class="cls-16" d="M71.64,133.38c2.85-2.9,5.81-5.66,8.8-8.36,2.99-2.71,6.03-5.36,9.11-7.96,3.09-2.59,6.2-5.13,9.37-7.61,3.16-2.48,6.36-4.91,9.67-7.2l-1.77-2.45c-2.89,2.86-5.88,5.58-8.91,8.25-3.02,2.68-6.1,5.28-9.21,7.84-3.1,2.57-6.24,5.09-9.43,7.54-3.18,2.46-6.4,4.87-9.73,7.13l2.1,2.81Z"/>
            <path class="cls-5" d="M63.7,116.08c0,13.89,11.3,25.19,25.19,25.19,13.89,0,25.19-11.3,25.19-25.19,0-13.89-11.3-25.19-25.19-25.19-13.89,0-25.19,11.3-25.19,25.19ZM66.59,119.04c-.13-.97-.2-1.95-.2-2.96,0-1.51.15-2.97.43-4.4.69-3.43,2.15-6.59,4.21-9.27,1.49-1.95,3.31-3.66,5.37-5.03,2.79-1.87,6.03-3.14,9.51-3.59.97-.13,1.96-.2,2.97-.2,1.49,0,2.96.15,4.39.43,3.43.67,6.59,2.14,9.27,4.2,1.95,1.51,3.66,3.31,5.03,5.37,1.98,2.93,3.27,6.35,3.67,10.04.09.81.13,1.63.13,2.46,0,1.32-.11,2.62-.34,3.88-.66,3.81-2.29,7.29-4.62,10.19-1.33,1.66-2.88,3.12-4.63,4.35-3.03,2.14-6.61,3.54-10.47,3.96-.81.09-1.63.13-2.45.13-1.33,0-2.62-.12-3.89-.34-3.81-.66-7.29-2.29-10.19-4.62-1.66-1.33-3.11-2.89-4.33-4.63-2.05-2.89-3.42-6.28-3.89-9.96Z"/>
            <circle class="cls-11" cx="88.68" cy="115.79" r="4.04" transform="translate(-24.23 23.47) rotate(-13.28)"/>
            <path class="cls-5" d="M87.08,115.79c0,.89.72,1.61,1.61,1.61s1.61-.72,1.61-1.61-.72-1.61-1.61-1.61-1.61.72-1.61,1.61Z"/>
            <path class="cls-5" d="M83.96,115.8c0,.66.13,1.29.38,1.86.05.11.11.22.16.31.52,1.04,1.43,1.83,2.53,2.23.03.03.05.04.09.04.48.17,1.01.27,1.56.27.63,0,1.25-.12,1.8-.36,1.06-.44,1.94-1.26,2.44-2.3,0,0,.01-.01,0-.03.31-.61.47-1.29.47-2.02,0-.44-.07-.87-.17-1.28,0-.01-.01-.03-.01-.04-.34-1.18-1.13-2.18-2.18-2.77-.05-.04-.11-.07-.16-.09-.65-.35-1.4-.54-2.18-.54-.48,0-.96.07-1.39.22-.09.03-.19.05-.28.09-1.16.43-2.1,1.32-2.62,2.44-.04.08-.08.17-.11.27-.22.52-.32,1.1-.32,1.71ZM85.86,117.64c-.13-.19-.24-.4-.32-.62-.15-.38-.23-.79-.23-1.22,0-.34.05-.66.13-.96.07-.23.16-.46.27-.66.36-.65.92-1.17,1.6-1.47.22-.11.44-.17.67-.23.23-.04.46-.07.7-.07.48,0,.94.11,1.36.28.26.11.5.26.71.43.44.35.79.79,1.01,1.32.15.34.24.71.27,1.1.01.08.01.16.01.24,0,.35-.05.67-.15.98-.11.35-.27.69-.48.97-.23.34-.54.63-.89.86-.31.2-.66.36-1.02.44-.27.07-.54.11-.82.11-.17,0-.35-.01-.52-.04-.35-.05-.67-.16-.97-.31-.54-.26-1.01-.67-1.33-1.17Z"/>
          </g>
          <path class="cls-10" d="M56.83,116.08c0,17.71,14.36,32.06,32.06,32.06,10.71,0,20.2-5.25,26.01-13.32-7.48,5.26-16.7,8.03-25.85,7.74-8.3-.28-16.84-3.27-22.23-9.61-4.08-4.79-6.04-11.13-6.58-17.41-.43-4.98-.01-9.99.61-14.95-2.56,4.59-4.01,9.88-4.01,15.5Z"/>
          <path class="cls-8" d="M70.34,91.8c6.75-5.4,15.9-7.69,24.4-6.11,8.5,1.58,16.21,7.01,20.57,14.48,4.36,7.47,5.28,16.85,2.47,25.03-.25-10.92-6.98-20.97-16.08-27-9.1-6.03-20.61-8.31-31.37-6.4Z"/>
        </g>
        <path class="cls-3" d="M405.17,115.31c4.8.5,9.64.04,14.37-1.26.94-3.85,2.4-11.26,2.15-19.81-3,.81-5.99,1.87-8.92,3.23-4.39,2.02-5.83,11.32-7.6,17.84Z"/>
        <path class="cls-2" d="M269.5,46.35c1.72-4.79,4.4-9.24,7.86-12.98.76-.83,1.92-1.18,3-.87,3.22.93,6.41,2.37,8.58,4.91,2.22,2.61,3.07,6.61,1.27,9.53-6.58,2.42-13.99,1.4-20.72-.59Z"/>
        <path class="cls-4" d="M107.85,48.77c7.48-.69,15.13.42,22.1,3.2.26-.27.47-.59.59-.96.38-1.1-.34-2.58-1.44-2.96-1.24-.44-15.4-1.41-18.77-1.55-.66-.03-2.5.23-2.48,2.26Z"/>
        <path class="cls-6" d="M217.78,50.13c-1.25.54-2.44,1.42-2.91,2.69-.62,1.68.23,3.63,1.63,4.74s3.22,1.54,4.99,1.73c1.91.21,3.95.16,5.63-.77,1.82-1,3.57-3.97,2.11-5.9-1.54-2.03-4.55-3.11-7-3.25-1.51-.09-3.05.16-4.45.76Z"/>
        <path class="cls-2" d="M210.58,54.64v.17c.31,2.18,3.17,2.7,4.09,2.71,4.46.03,15.49.09,16.49-.25.65-.21,1.26-.6,1.7-1.11.23-.29.42-.63.52-1,.29-1.13-.53-2.55-1.66-2.84-1.27-.35-15.46-.24-18.84-.12-.66.02-2.48.42-2.3,2.44Z"/>
        <path class="cls-4" d="M210.58,54.64c7.41-1.25,15.11-.73,22.28,1.52.23-.29.42-.63.52-1,.29-1.13-.53-2.55-1.66-2.84-1.27-.35-15.46-.24-18.84-.12-.66.02-2.48.42-2.3,2.44Z"/>
        <path class="cls-16" d="M381.32,62.91c10.86,14.33,25.14,22.26,39.39,22.04-.35-1.91-.82-3.84-1.43-5.75-6.5-.52-12.85-2.5-18.81-5.19-6.93-3.15-12.72-7.04-19.15-11.1Z"/>
        <path class="cls-13" d="M14.19,57.7c3.03-2.52,6.8-4.05,10.58-5.21,4.23-1.29,8.61-2.18,12.69-3.89-6.37-1.79-14.21-2.68-21.3-1.39-.93,3.39-1.56,7.13-1.96,10.48Z"/>
        <path class="cls-4" d="M283.29,34.49c-1.03-.45-2.19-.79-3.34-.63-1.62.22-2.84,1.37-3.79,2.5-1.25,1.5-2.3,3.11-3.13,4.8-.16.33-.31.7-.12,1.02.2.34.68.45,1.12.53,4.95.93,10.2,1.85,14.99.45,1.44-.42,1.24-.97.84-2.04-.35-.94-.85-1.84-1.48-2.67-1.25-1.66-3.02-3.05-5.09-3.96Z"/>
        <path class="cls-14" d="M94.03,69.03c.34.16-14.29-3.04-29.93,6.57-14.29,8.79-18.87,27.06-18.87,27.06,0,0-.14-13.05,8.7-25.95,8.84-12.9,27.14-13.77,40.1-7.68Z"/>
        <path class="cls-17" d="M338.31,74.97c-.32.2,13.85-4.66,30.48,3.09,15.21,7.09,21.85,24.72,21.85,24.72,0,0-1.35-12.98-11.62-24.78-10.26-11.8-28.54-10.57-40.71-3.04Z"/>
      </g>
    </g>
  </g>
</svg>