<?xml version="1.0" encoding="UTF-8"?>
<svg id="Layer_2" data-name="Layer 2" xmlns="http://www.w3.org/2000/svg" viewBox="0 0 433.4 139.03">
  <defs>
    <style>
      .cls-1 {
        opacity: .5;
      }

      .cls-2 {
        fill: #414042;
      }

      .cls-2, .cls-3, .cls-4, .cls-5, .cls-6, .cls-7, .cls-8, .cls-9, .cls-10, .cls-11, .cls-12, .cls-13, .cls-14, .cls-15, .cls-16, .cls-17, .cls-18, .cls-19 {
        stroke-width: 0px;
      }

      .cls-3 {
        fill: #0b0606;
      }

      .cls-4 {
        fill: #191919;
      }

      .cls-20, .cls-7, .cls-15, .cls-18 {
        opacity: .2;
      }

      .cls-5 {
        fill: #f9eff1;
      }

      .cls-6 {
        fill: #767676;
      }

      .cls-7 {
        fill: #b7b7b7;
      }

      .cls-8 {
        fill: #e3e3e3;
      }

      .cls-9 {
        fill: #d96c31;
      }

      .cls-10 {
        fill: #232122;
      }

      .cls-11 {
        fill: #999896;
      }

      .cls-12 {
        fill: #272626;
      }

      .cls-13 {
        fill: #d52027;
      }

      .cls-14 {
        fill: #989898;
      }

      .cls-15, .cls-16 {
        fill: #fff;
      }

      .cls-17 {
        fill: #232020;
      }

      .cls-18 {
        fill: #000;
      }

      .cls-19 {
        fill: #5a5b5b;
        opacity: .64;
      }
    </style>
  </defs>
  <g id="Layer_1-2" data-name="Layer 1">
    <g>
      <path class="cls-11" d="M433.4,131.74c0,4.02-97.02,7.29-216.7,7.29S0,135.77,0,131.74s97.02-7.29,216.7-7.29,216.7,3.26,216.7,7.29Z"/>
      <path class="cls-4" d="M414.96,106.79l-7.99-31.74c-4.57-6.12-8.94-15.45-50.04-20.32l-64.77-8.04c-21.51-12.76-53.37-27.91-75.48-36.39-13.65-5.23-75.83-7.49-99.01-5.34-18.51,1.71-25.82,5.1-44.39,24.34-12.74,13.2-33.39,12-41.83,25.49-8.01,3.79-5.45,23.09-5.45,23.09-3.38,14.08-3.24,17.01,5,29.91,9.68,15.16,17.78,13.41,23.18,13.41l343.09.58c7.29,0,23.32-4.93,17.68-14.99Z"/>
      <path class="cls-16" d="M425.85,88.39l-10.68-17.49c-4.77-6.12-9.34-15.45-52.25-20.32l-67.63-8.04c-22.46-12.76-55.72-27.91-78.8-36.39C202.23.92,137.31-1.34,113.11.81c-19.33,1.71-26.96,5.1-46.34,24.34-13.3,13.2-34.86,12-43.67,25.49-8.37,3.79-5.69,23.09-5.69,23.09-3.53,14.08-3.38,17.01,5.22,29.91,5.05,7.58,9.69,10.93,13.77,12.39,4.08,1.46,7.61-13.41,10.42-13.41,0,0,7.75,15.02,75.03,15.02,49.75,0,140.24-.22,144.32-.22,16.32,0,34.98-16.51,49.79-16.51,16.52,0,52.74-.64,73.66-.64,4.66,0,9.73,15.04,22.94,15.04,1.51,0,19.17-16.84,13.29-26.9Z"/>
      <path class="cls-15" d="M422.75,83.32l-7.59-12.42c-1.71-2.19-3.39-4.8-6.82-7.46-10.27-.4-17.94,2.28-20.44,7.07.02.41.07.83.17,1.26.15.66.38,1.32.7,1.98,6.21,4.33,15.78,7.85,25.95,9.11,2.84.35,5.52.49,8.03.46Z"/>
      <path class="cls-17" d="M267.86,103.23c-.08-1.96-.08-5.28-.07-9.49.03-15.77.08-42.17-4.48-47.32l-.58.51c4.36,4.93,4.31,32.17,4.28,46.8,0,4.21-.01,7.54.07,9.52.2,4.76-.22,7.28-1.4,8.43-1.01.98-2.66,1.07-5.18.88-2.94-.21-38.05-.31-70.85-.35h0c-4.79,0-4.9-.81-5.41-4.72l-.13-.95c-.51-3.72-1.37-11.07-2.37-19.59-1.77-15.11-3.98-33.91-5.23-40.91l-.77.14c1.25,6.98,3.45,25.77,5.22,40.87,1,8.52,1.86,15.88,2.37,19.61l.13.95c.31,2.38.51,3.82,1.73,4.61-24.59-.03-46.96-.03-52.21-.03h-.85c-6.56.04-8.54.04-9.64-17.51-.96-15.3-12.04-27.88-22.5-32.39-1.49-.64-2.64-.88-3.56-1.06-1.76-.35-2.56-.52-3.5-3.19-.64-1.81-2.33-6.62-.2-18.76l.02-2.28c-3.49,13-1.59,18.37-.56,21.29,1.09,3.09,2.21,3.31,4.08,3.69.89.18,1.99.4,3.41,1.01,8.28,3.57,20.98,14.97,22.03,31.72,1.14,18.29,3.48,18.29,10.42,18.24h.85c12.49,0,122.17,0,127.45.39.66.05,1.27.08,1.83.08,1.75,0,3.02-.28,3.94-1.18,1.37-1.33,1.85-3.95,1.64-9.02Z"/>
      <g>
        <path class="cls-17" d="M264.22,47.41c-42.4-.25-148.55-2.45-169.77-4.5-4.91-.48-.47-11.16,5.01-20.57,3.5-6.03,7.43-11.54,9.61-13.51,8.78-7.93,96.72-2.51,103.91,1.44,1.93,1.06,6.84,4.3,12.9,8.45,16.2,11.09,40.62,28.7,38.34,28.69Z"/>
        <path class="cls-2" d="M263.02,46.68c-43.16-.3-147.56-2.51-168.7-4.56-.77-.07-.94-.42-1.02-.59-2.26-4.65,11.12-27.26,16.34-31.98,3.11-2.81,18.6-4.21,42.07-3.84,26.53.41,57.02,3.09,61.04,5.29,6.96,3.81,44.37,30.24,50.26,35.68Z"/>
        <path class="cls-17" d="M173.82,44.38c-24.07-.6-66.7-1.79-79.63-3.06-.12-.01-.2-.03-.25-.04-1.72-4.2,10.97-26.22,16.28-31,2.96-2.67,18.68-4.06,41.64-3.71,4.34.07,8.92.2,13.63.39,2.17,12.04,4.91,24.33,8.33,37.43Z"/>
        <path class="cls-17" d="M237.88,45.66c-18.32-.27-39.43-.69-59.61-1.17-3.36-13.11-6.04-25.37-8.13-37.33,21.15,1.02,39.52,3.01,42.4,4.59,4.06,2.22,18.8,12.36,30.55,20.77-1.79,4.79-3.49,9.1-5.21,13.15Z"/>
      </g>
      <path class="cls-10" d="M93.03,4.98c-7.84,3.27-15.11,9.09-26.27,20.17-4.68,4.65-10.39,7.5-16.2,9.85,15.59,2.9,34.62-19.57,38.91-24.11,2.63-2.78,3.5-4.18,3.56-5.9Z"/>
      <path class="cls-17" d="M88.76,10.17c2.05-2.17,3.02-3.5,3.38-4.8-7.51,3.34-14.64,9.12-25.38,19.77-4.36,4.33-9.61,7.1-15.01,9.35,15.2.88,32.89-19.97,37.01-24.33Z"/>
      <path class="cls-10" d="M216.69,8.81c5.18,2.07,54.93,30.06,62.7,33.16,6.11,2.44,15.42,4.56,22.39,1.34l-6.49-.77c-22.3-12.67-55.23-27.69-78.29-36.2-1.74.64-2.74,1.5-.31,2.47Z"/>
      <path class="cls-17" d="M297.76,42.83l-2.47-.29c-22.13-12.58-54.75-27.47-77.78-36.01-1.15.61-1.49,1.35.48,2.12,5.05,1.98,53.49,29.12,61.06,32.1,5.08,2,12.44,3.71,18.72,2.08Z"/>
      <g>
        <path class="cls-4" d="M81.54,63.17c20.33-.5,37.21,15.57,37.72,35.9.03,1.15,0,20.11,11.93,20.11-30.53.68-76.49-2.19-85.26-2.19,0-3.37-.24-14.64-.28-16.1-.5-20.33,15.57-37.21,35.9-37.72Z"/>
        <g>
          <path class="cls-3" d="M47.87,100.71c.47,18.97,16.22,33.96,35.19,33.49,18.97-.47,33.96-16.22,33.49-35.19-.47-18.97-16.22-33.96-35.19-33.49-18.97.47-33.96,16.22-33.49,35.19Z"/>
          <path class="cls-4" d="M67.56,110.14c7.3,6.95,6.03-5.54,12.98-12.84,6.95-7.3,19.49-6.65,12.19-13.6-7.3-6.95-18.85-6.66-25.8.64-6.95,7.3-6.66,18.85.64,25.8Z"/>
          <path class="cls-6" d="M55.68,100.52c.36,14.65,12.53,26.23,27.18,25.87,14.65-.36,26.23-12.53,25.87-27.18-.36-14.65-12.53-26.23-27.18-25.87-14.65.36-26.23,12.53-25.87,27.18ZM60.75,108.44l3.35-.62-2.71,2.07c-.23-.48-.44-.96-.63-1.45ZM59.61,104.75c-.3-1.4-.49-2.84-.53-4.32-.04-1.45.08-2.86.3-4.24l11.32,1.52,3.49,2.4-3.37,2.57-11.22,2.07ZM103.36,109.16l-3.24-2.23,3.92.53c-.2.58-.43,1.15-.67,1.71ZM93.14,102.13l-3.49-2.4,3.37-2.57,11.79-2.18c.3,1.4.49,2.83.53,4.31.04,1.51-.08,2.99-.32,4.43l-11.87-1.59ZM103.67,91.29l-3.92.72,3.16-2.42c.27.55.52,1.12.75,1.69ZM60.88,90.94l2.85,1.96-3.41-.46c.17-.51.35-1.01.56-1.5ZM68.53,81.22l7.03,9.2.77,4.17-4.2-.56-9.47-6.52c1.55-2.45,3.55-4.58,5.88-6.29ZM71.82,79.22c.5-.25,1.01-.49,1.53-.71l.66,3.58-2.19-2.87ZM81.64,76.74c1.39-.03,2.74.08,4.07.28l-1.57,11.69-2.4,3.49-2.57-3.37-2.13-11.51c1.48-.34,3.02-.54,4.61-.58ZM89.45,77.91c.57.19,1.13.39,1.68.62l-2.19,3.19.51-3.81ZM100.93,86.29l-9.51,7.26-4.17.77.56-4.2,6.75-9.81c2.48,1.57,4.64,3.6,6.37,5.98ZM95.46,118.81l-7.18-9.4-.77-4.17,4.2.56,9.81,6.75c-1.61,2.45-3.67,4.57-6.07,6.25ZM92.12,120.75c-.53.25-1.07.47-1.61.68l-.68-3.68,2.29,3ZM82.78,122.98c-1.58.04-3.12-.08-4.61-.35l1.54-11.5,2.4-3.49,2.57,3.37,2.12,11.5c-1.31.26-2.65.44-4.03.48ZM74.44,121.63c-.52-.19-1.03-.39-1.53-.61l2-2.9-.47,3.51ZM63.33,113.23l9.1-6.95,4.17-.77-.56,4.2-6.52,9.47c-2.41-1.59-4.51-3.6-6.18-5.96Z"/>
          <path class="cls-14" d="M76.55,118.2l-2.92-1.13,3.82-5.55-.9,6.68ZM88.19,117.91l-1.22-6.63,4.09,5.36-2.87,1.27ZM78.3,109.33l.87-6.52-6.46,1.19,5.22-3.99-5.41-3.73,6.51.87-1.19-6.46,3.99,5.22,3.72-5.41-.87,6.51,6.47-1.19-5.23,3.99,5.41,3.72-6.51-.87,1.2,6.46-3.99-5.22-3.73,5.42ZM65.2,109.05l-1.27-2.87,6.63-1.22-5.36,4.09ZM99.08,108.21l-5.55-3.82,6.68.89-1.13,2.92ZM93.29,94.88l5.36-4.09,1.27,2.87-6.63,1.22ZM70.32,95.44l-6.68-.9,1.13-2.92,5.55,3.82ZM76.88,88.55l-4.09-5.36,2.87-1.27,1.22,6.63ZM86.4,88.31l.9-6.68,2.92,1.13-3.82,5.55Z"/>
          <path class="cls-12" d="M81.48,70.39c-17.64.44-31.66,14.63-32.16,32.06-.05-.59-.12-1.18-.13-1.78-.45-18.24,13.97-33.39,32.21-33.84,18.24-.45,33.39,13.97,33.84,32.21.01.6-.03,1.19-.05,1.78-1.36-17.38-16.07-30.87-33.71-30.43Z"/>
          <path class="cls-12" d="M82.87,126.51c14.27-.35,25.62-11.84,26.03-25.94.04.48.1.95.11,1.44.36,14.76-11.3,27.02-26.06,27.38-14.76.36-27.02-11.3-27.38-26.06-.01-.49.02-.96.04-1.44,1.1,14.07,13,24.98,27.28,24.63Z"/>
        </g>
      </g>
      <path class="cls-4" d="M351.86,63.17c20.33-.5,37.21,15.57,37.72,35.9.03,1.15.39,9.34.86,18.51-30.53.68-66.01,2.64-74.77,2.64,0-3.37.34-17.87.3-19.33-.5-20.33,15.57-37.21,35.9-37.72Z"/>
      <g>
        <circle class="cls-3" cx="352.53" cy="99.86" r="34.35" transform="translate(153.81 407.69) rotate(-72.97)"/>
        <path class="cls-4" d="M337.87,110.14c7.3,6.95,6.03-5.54,12.98-12.84,6.95-7.3,19.49-6.65,12.19-13.6-7.3-6.95-18.85-6.66-25.8.64-6.95,7.3-6.66,18.85.64,25.8Z"/>
        <path class="cls-6" d="M326,100.52c.36,14.65,12.53,26.23,27.18,25.87,14.65-.36,26.23-12.53,25.87-27.18-.36-14.65-12.53-26.23-27.18-25.87-14.65.36-26.23,12.53-25.87,27.18ZM331.07,108.44l3.35-.62-2.71,2.07c-.23-.48-.44-.96-.63-1.45ZM329.93,104.75c-.3-1.4-.49-2.84-.53-4.32-.04-1.45.08-2.86.3-4.24l11.32,1.52,3.49,2.4-3.37,2.57-11.22,2.07ZM373.68,109.16l-3.24-2.23,3.92.53c-.2.58-.43,1.15-.67,1.71ZM363.46,102.13l-3.49-2.4,3.37-2.57,11.79-2.18c.3,1.4.49,2.83.53,4.31.04,1.51-.08,2.99-.32,4.43l-11.87-1.59ZM373.99,91.29l-3.92.72,3.16-2.42c.27.55.52,1.12.75,1.69ZM331.2,90.94l2.85,1.96-3.41-.46c.17-.51.35-1.01.56-1.5ZM338.85,81.22l7.03,9.2.77,4.17-4.2-.56-9.47-6.52c1.55-2.45,3.55-4.58,5.88-6.29ZM342.14,79.22c.5-.25,1.01-.49,1.53-.71l.66,3.58-2.19-2.87ZM351.96,76.74c1.39-.03,2.74.08,4.06.28l-1.57,11.69-2.4,3.49-2.57-3.37-2.13-11.51c1.48-.34,3.02-.54,4.61-.58ZM359.77,77.91c.57.19,1.13.39,1.68.62l-2.19,3.19.51-3.81ZM371.25,86.29l-9.51,7.26-4.17.77.56-4.2,6.75-9.81c2.48,1.57,4.64,3.6,6.37,5.98ZM365.78,118.81l-7.18-9.4-.77-4.17,4.2.56,9.81,6.75c-1.61,2.45-3.67,4.57-6.07,6.25ZM362.44,120.75c-.53.25-1.07.47-1.61.68l-.68-3.68,2.29,3ZM353.1,122.98c-1.58.04-3.12-.08-4.61-.35l1.54-11.5,2.4-3.49,2.57,3.37,2.12,11.5c-1.31.26-2.65.44-4.03.48ZM344.76,121.63c-.52-.19-1.03-.39-1.53-.61l2-2.9-.47,3.51ZM333.65,113.23l9.1-6.95,4.17-.77-.56,4.2-6.52,9.47c-2.41-1.59-4.51-3.6-6.18-5.96Z"/>
        <path class="cls-14" d="M346.87,118.2l-2.92-1.13,3.82-5.55-.9,6.68ZM358.51,117.91l-1.22-6.63,4.09,5.36-2.87,1.27ZM348.62,109.33l.87-6.52-6.46,1.19,5.22-3.99-5.41-3.73,6.51.87-1.19-6.46,3.99,5.22,3.72-5.41-.87,6.51,6.47-1.19-5.23,3.99,5.42,3.72-6.52-.87,1.2,6.46-3.99-5.22-3.73,5.42ZM335.52,109.05l-1.27-2.87,6.63-1.22-5.36,4.09ZM369.4,108.21l-5.55-3.82,6.68.89-1.13,2.92ZM363.61,94.88l5.36-4.09,1.27,2.87-6.63,1.22ZM340.63,95.44l-6.68-.9,1.13-2.92,5.55,3.82ZM347.2,88.55l-4.09-5.36,2.87-1.27,1.22,6.63ZM356.72,88.31l.9-6.68,2.92,1.13-3.82,5.55Z"/>
        <path class="cls-12" d="M351.8,70.39c-17.64.44-31.66,14.63-32.16,32.06-.05-.59-.12-1.18-.13-1.78-.45-18.24,13.97-33.39,32.21-33.84,18.24-.45,33.39,13.97,33.84,32.21.02.6-.03,1.19-.05,1.78-1.36-17.38-16.07-30.87-33.71-30.43Z"/>
        <path class="cls-12" d="M353.19,126.51c14.27-.35,25.62-11.84,26.03-25.94.04.48.1.95.11,1.44.36,14.76-11.3,27.02-26.06,27.38-14.76.36-27.02-11.3-27.38-26.06-.01-.49.02-.96.04-1.44,1.1,14.07,13,24.98,27.28,24.63Z"/>
      </g>
      <g>
        <path class="cls-4" d="M197.03,51.78c.38,1.72-.71,3.07-2.42,3.02l-11.44-.33c-1.71-.05-3.41-1.48-3.79-3.19h0c-.38-1.72.71-3.07,2.42-3.02l11.44.33c1.71.05,3.41,1.48,3.79,3.19h0Z"/>
        <path class="cls-3" d="M192.99,49.02l-10.88-.33c-1.31-.04-2.21.83-2.34,2.07.59,1.41,1.98,2.49,3.38,2.53l10.88.33c1.31.04,2.21-.83,2.34-2.07-.59-1.41-1.98-2.49-3.38-2.53Z"/>
        <path class="cls-12" d="M192.99,48.96l-10.88-.27c-1.31-.03-2.21.68-2.34,1.68.59,1.14,1.98,2.02,3.38,2.06l10.88.27c1.31.03,2.21-.68,2.34-1.68-.59-1.14-1.98-2.02-3.38-2.06Z"/>
      </g>
      <g>
        <path class="cls-12" d="M112.11,49.06c.38,1.72-.71,3.07-2.42,3.02l-11.44-.33c-1.71-.05-3.41-1.48-3.79-3.19h0c-.38-1.72.71-3.07,2.42-3.02l11.44.33c1.71.05,3.41,1.48,3.79,3.2h0Z"/>
        <path class="cls-3" d="M108.07,46.3l-10.88-.33c-1.31-.04-2.21.83-2.34,2.07.59,1.41,1.98,2.49,3.38,2.53l10.88.33c1.31.04,2.21-.83,2.34-2.07-.59-1.41-1.98-2.49-3.38-2.53Z"/>
        <path class="cls-4" d="M108.07,46.24l-10.88-.27c-1.31-.03-2.21.68-2.34,1.68.59,1.14,1.98,2.02,3.38,2.06l10.88.27c1.31.03,2.21-.68,2.34-1.68-.59-1.14-1.98-2.02-3.38-2.06Z"/>
      </g>
      <path class="cls-12" d="M419.53,78.04l-4.36-7.14c-1.99-2.55-3.94-5.65-8.63-8.76-11.63-1.12-19.85,2.32-18.48,7.83.12.49.32.97.57,1.46,5.12,3.14,13.01,5.66,21.39,6.5,3.47.35,6.68.37,9.51.12Z"/>
      <path class="cls-19" d="M225.88,18.72l-.8.31-.82.31h-.01s-17.6-.62-50.43-2.04c-.6-.03-1.19-.05-1.79-.07-1.52-.06-3.05-.1-4.58-.12-30.68-.51-64.16,4.29-65.48,4.49h-.04l-1.21.36-1.26.38c3.5-6.03,7.43-11.54,9.61-13.51,8.78-7.93,96.72-2.51,103.91,1.44,1.93,1.06,6.84,4.3,12.9,8.45Z"/>
      <path class="cls-5" d="M419.53,78.04l-4.36-7.14c-1.62-2.07-3.21-4.51-6.28-7.03-10.51-1.08-18.6,1.04-20.98,5.16.02.3.06.62.14.93.12.49.32.97.57,1.46,5.12,3.14,13.01,5.66,21.39,6.5,3.47.35,6.68.37,9.51.12Z"/>
      <path class="cls-16" d="M388.62,71.43c.6.37,1.25.73,1.92,1.08,2.7-3.01,5.86-5.74,8.64-8.66-5.62.63-9.7,2.47-11.28,5.19.02.3.06.62.14.93.12.49.32.97.57,1.46Z"/>
      <path class="cls-16" d="M400.03,71.39c2.53-2.47,5.08-4.91,7.5-7.49.04-.04.07-.08.11-.12-1.22-.09-2.41-.16-3.56-.17-.25.3-.5.61-.76.91-2.8,3.28-6.37,6.27-9.42,9.53.85.35,1.75.67,2.67.99,1.16-1.2,2.25-2.48,3.45-3.65Z"/>
      <path class="cls-16" d="M411.95,67.87c.15-.17.29-.35.44-.52-.5-.59-1.04-1.19-1.65-1.8-.56.59-1.1,1.19-1.66,1.78-2.75,2.85-5.26,5.19-8.74,8.84.91.24,1.85.46,2.79.66,2.81-3.09,6.08-5.83,8.83-8.96Z"/>
      <path class="cls-16" d="M414.59,70.15c-2.31,2.55-4.96,4.91-7.39,7.42.93.14,1.87.26,2.82.35,3.47.35,6.68.37,9.51.12l-4.36-7.14c-.19-.25-.38-.5-.58-.75Z"/>
      <path class="cls-4" d="M412.93,74.66c-9.29-.33-18.14-1.92-24.71-4.18.11.31.24.63.41.94,5.12,3.14,13.01,5.66,21.39,6.5,3.47.35,6.68.37,9.51.12l-2.03-3.32c-1.48.02-3,0-4.57-.05Z"/>
      <path class="cls-15" d="M387.82,88.68c12.4,0,35.11-.19,36.85-.19s2.72,6.22-.39,11.46c0-3.85-.61-6.87-4.69-6.87s-29.97-1.14-31.77-4.4Z"/>
      <path class="cls-15" d="M18.14,74.05c6.84,0,27.16,1.37,34.09,1.37-1.86,1.86-3.32,8.99-11.92,9.28-8.6.29-23.61-2.19-24.88.94.2-2.83.75-7.78,2.7-11.59Z"/>
      <path class="cls-10" d="M44.26,51.02h-21.89c-5.63,3.42-5.6,14.52-5.24,19.82h13.77c2.15,0,5.06-1.74,6.5-3.89l8.12-12.05c1.45-2.15.88-3.89-1.27-3.89Z"/>
      <path class="cls-13" d="M41.94,52.51h-21.31c-3.69,4.23-3.81,12.78-3.54,17.63h11.49c2.15,0,5.06-1.55,6.5-3.46l8.12-10.72c1.45-1.91.88-3.46-1.27-3.46Z"/>
      <path class="cls-18" d="M308.57,57.15s9.57,5.05,3.89,8.97c3.55-.04,6.84-1.67,6.84-4.27,0-1.74-4.55-4.7-10.73-4.7Z"/>
      <path class="cls-9" d="M41.88,57.72l1.32-1.75c1.45-1.91.88-3.46-1.27-3.46h-9.16c-.62,1.73-1.21,3.46-1.77,5.2h10.88Z"/>
      <path class="cls-9" d="M29.9,61.21c-.89,2.95-1.7,5.92-2.41,8.93h1.09c2.15,0,5.06-1.55,6.5-3.46l4.15-5.48h-9.33Z"/>
      <g class="cls-20">
        <path class="cls-16" d="M322.31,58.86c0-8.03-31.18-6.13-46.06-4.58,0,0,45.59.25,45.25,6.77-.03.55-.11,1.06-.23,1.53.66-.98,1.04-2.2,1.04-3.72Z"/>
      </g>
      <path class="cls-4" d="M276.02,54.28c19.44,0,45.47-.89,45.47,6.11,0,9.56-14.83,7.21-20.27,7.21,7.17-.77,16.09-.95,16.09-5.76,0-4.16-10.21-5.59-41.29-7.56Z"/>
      <path class="cls-7" d="M425.85,88.39l-10.68-17.49c-4.77-6.12-9.34-15.45-52.25-20.32l-67.63-8.04c-22.46-12.76-55.72-27.91-78.8-36.39C202.23.92,137.31-1.34,113.11.81c-19.33,1.71-26.96,5.1-46.34,24.34-13.3,13.2-34.86,12-43.67,25.49-8.37,3.79-5.69,23.09-5.69,23.09-3.33,13.29-3.38,16.66,3.87,27.85.08-.03.16-.05.24-.07.08-.08.17-.15.26-.21-3.99-7.08-3.5-11.03-.77-21.43,0,0-2.64-18.19,5.6-21.77,8.68-12.72,55.44-5.78,64.69-21.31,12.96-21.76,11.53-28.44,30.57-30.06,23.84-2.02,77.48-2.15,90.9,4.27,14.19,6.78,33.63,24.63,55.75,36.67l66.33,5.7c42.27,4.59,69.45,18.67,74.15,24.44l14.32,15.88c1.88,3.07,1.32,6.82-.34,10.47,3.35-5.17,5.58-11.18,2.89-15.78Z"/>
      <path class="cls-15" d="M351.75,63.43c-19.91.49-35.73,16.51-36.3,36.18-.05-.67-.13-1.33-.15-2.01-.51-20.58,15.76-37.68,36.35-38.19,20.58-.51,37.68,15.76,38.19,36.35.02.68-.03,1.34-.05,2.01-1.53-19.62-18.13-34.84-38.04-34.34Z"/>
      <path class="cls-15" d="M81.41,63.43c-19.91.49-35.73,16.51-36.3,36.18-.05-.67-.13-1.33-.15-2.01-.51-20.58,15.76-37.68,36.35-38.19,20.58-.51,37.68,15.76,38.19,36.35.02.68-.03,1.34-.05,2.01-1.53-19.62-18.13-34.84-38.04-34.34Z"/>
      <path class="cls-15" d="M92.58,46.12l187.33,7.77s-75.4,7.77-185.77,1.55c-4.66-3.11-1.55-9.33-1.55-9.33Z"/>
      <path class="cls-8" d="M125.23,97.42c43.52,0,63.74,3.11,88.61-6.22,24.87-9.33,68.47-18.42,108.04-15.55-3.11,6.22-5.44,8.55-7,17.1-13.21,0-38.09-2.33-73.07,7-34.98,9.33-66.07,3.11-116.59-2.33Z"/>
      <g>
        <path class="cls-4" d="M253.97,45.53c-.89,4.49-10.33,6.42-14.8,5.54-4.47-.88-7.37-5.24-6.49-9.73s5.23-7.42,9.69-6.54c4.47.88,12.48,6.24,11.6,10.74Z"/>
        <g class="cls-1">
          <path class="cls-16" d="M235.2,38.42c.87,2.18,2.77,3.88,5.24,4.37,2.78.55,7.79-.17,10.67-2.06-2.12-2.58-6.05-4.81-8.62-5.32-2.89-.57-5.72.71-7.29,3.01Z"/>
        </g>
      </g>
      <path class="cls-6" d="M84.55,98.22c-.09.11-.53.5-.97.85-.02.02-.05.03-.08.05-.03-.03-.06-.06-.09-.09-.09-.09-.17-.19-.26-.28-.29-.26-.63-.39-1.02-.4-.2,0-.39,0-.58.06-.48.14-.8.44-.95.91-.13.38-.13.77-.02,1.15.16.52.5.86,1.02,1,.4.11.8.1,1.2-.04.17-.06.32-.16.46-.27.09-.07.12-.15.11-.26,0-.02,0-.04-.01-.06-.05-.05-.11-.03-.17-.03-.3,0-.6,0-.9,0-.05,0-.09,0-.14,0-.03,0-.06-.01-.1-.02,0-.04-.01-.07-.01-.11,0-.35,0-.69,0-1.04,0-.02,0-.03,0-.05,0-.07.02-.09.09-.1.03,0,.05,0,.08,0,.84,0,1.68,0,2.53,0,.05,0,.09,0,.13.01.04.06.03.11.03.16,0,.31,0,.62,0,.93,0,.2,0,.4,0,.6,0,.09-.02.17-.07.25-.41.64-.97,1.07-1.69,1.31-.34.11-.68.16-1.04.16-.47,0-.92-.07-1.35-.26-.89-.4-1.48-1.06-1.73-2.01-.09-.35-.1-.71-.06-1.06.12-1.15.96-2.11,2.06-2.47.33-.11.66-.16,1.01-.16.4,0,.79.05,1.16.19.53.2.96.53,1.3.99.02.03.04.07.06.1Z"/>
      <path class="cls-6" d="M354.87,98.26c-.09.11-.53.5-.97.85-.02.02-.05.03-.08.05-.03-.03-.06-.06-.09-.09-.09-.09-.17-.19-.26-.28-.29-.26-.63-.39-1.02-.4-.2,0-.39,0-.58.06-.48.14-.8.44-.95.91-.13.38-.13.77-.02,1.15.16.52.5.86,1.02,1,.4.11.8.1,1.2-.04.17-.06.32-.16.46-.27.09-.07.12-.15.11-.26,0-.02,0-.04-.01-.06-.05-.05-.11-.03-.17-.03-.3,0-.6,0-.9,0-.05,0-.09,0-.14,0-.03,0-.06-.01-.1-.02,0-.04-.01-.07-.01-.11,0-.35,0-.69,0-1.04,0-.02,0-.03,0-.05,0-.07.02-.09.09-.1.03,0,.05,0,.08,0,.84,0,1.68,0,2.53,0,.05,0,.09,0,.13.01.04.06.03.11.03.16,0,.31,0,.62,0,.93,0,.2,0,.4,0,.6,0,.09-.02.17-.07.25-.41.64-.97,1.07-1.69,1.31-.34.11-.68.16-1.04.16-.47,0-.92-.07-1.35-.26-.89-.4-1.48-1.06-1.73-2.01-.09-.35-.1-.71-.06-1.06.12-1.15.96-2.11,2.06-2.47.33-.11.66-.16,1.01-.16.4,0,.79.05,1.16.19.53.2.96.53,1.3.99.02.03.04.07.06.1Z"/>
    </g>
  </g>
</svg>