<?xml version="1.0" encoding="UTF-8"?>
<svg id="Layer_2" data-name="Layer 2" xmlns="http://www.w3.org/2000/svg" viewBox="0 0 443.87 172.11">
  <defs>
    <style>
      .cls-1 {
        fill: #333;
      }

      .cls-1, .cls-2, .cls-3, .cls-4, .cls-5, .cls-6, .cls-7, .cls-8, .cls-9, .cls-10, .cls-11, .cls-12, .cls-13, .cls-14, .cls-15, .cls-16, .cls-17, .cls-18, .cls-19, .cls-20, .cls-21, .cls-22 {
        stroke-width: 0px;
      }

      .cls-2 {
        fill: #0b0606;
      }

      .cls-3 {
        opacity: .42;
      }

      .cls-3, .cls-7, .cls-12, .cls-16, .cls-18 {
        fill: #fff;
      }

      .cls-4 {
        fill: #191919;
      }

      .cls-5 {
        fill: #4a163b;
      }

      .cls-6 {
        fill: #aeadb2;
      }

      .cls-7, .cls-10 {
        opacity: .37;
      }

      .cls-8 {
        fill: none;
      }

      .cls-9 {
        fill: #e6e6e5;
      }

      .cls-10 {
        fill: #999;
      }

      .cls-11 {
        fill: #e3e3e3;
      }

      .cls-12 {
        opacity: .11;
      }

      .cls-13 {
        fill: #999896;
      }

      .cls-14 {
        fill: #272626;
      }

      .cls-15 {
        fill: #989898;
      }

      .cls-16 {
        opacity: .22;
      }

      .cls-17 {
        fill: #3d3d3d;
      }

      .cls-19 {
        fill: #ccc;
      }

      .cls-20 {
        fill: #232020;
      }

      .cls-21 {
        fill: #5a5b5b;
      }

      .cls-22 {
        fill: #c12026;
      }
    </style>
  </defs>
  <g id="Layer_1-2" data-name="Layer 1">
    <g>
      <path class="cls-13" d="M433.4,164.82c0,4.02-97.02,7.29-216.7,7.29S0,168.85,0,164.82s97.02-7.29,216.7-7.29,216.7,3.26,216.7,7.29Z"/>
      <path class="cls-4" d="M335.48,147.01l13.09-4.87,42.08-1.49,22.18,6.26c.23-3.3.79-18.78-8.01-30.67-9.9-13.37-20.9-18.06-35.07-17.43-14.17.63-30.43,12.8-32.66,25.98-1.67,9.91-1.71,18.54-1.62,22.2Z"/>
      <path class="cls-4" d="M53.05,139.77l12.1-2.6,40.95,3.82,24.04,5.75c.32-2.3,2.32-18.53-6.09-31.46-9.06-13.95-19.76-19.29-33.94-19.53-14.18-.23-31.16,10.92-34.17,23.94-1.93,8.31-2.63,15.77-2.89,20.08Z"/>
      <path class="cls-11" d="M11.62,108.37v13.02c0,4.35,2.92,8.16,7.12,9.29l33.55,9.03.76.06c.12-2.04.35-4.8.75-8.02.45-3.56,1.13-7.7,2.14-12.06,3.01-13.02,19.99-24.17,34.17-23.94,14.18.23,24.88,5.58,33.94,19.53,4.74,7.27,6.17,15.61,6.47,21.89.23,4.89-.23,8.55-.38,9.56l2.95.27h202.39c-.05-1.99-.06-5.47.21-9.82.23-3.62.65-7.87,1.41-12.38,2.23-13.19,18.49-25.35,32.66-25.98,14.17-.63,25.17,4.06,35.07,17.43,5.36,7.25,7.25,15.83,7.85,22.17.39,4.06.25,7.21.16,8.5l27.32-3.04s1.22-3.88,2.25-9.67c1.41-7.79,2.5-19.01-.18-28.74-.98-3.61-2.5-7.01-4.68-9.96-4.88-6.56-11.12-11.76-18.65-16.15-11.75-6.88-26.64-11.79-44.43-16.85-18.22-5.18-42.13-15.59-63.37-25.49-12.77-5.97-24.57-11.74-33.59-16.08-11.36-5.47-26.68-10.46-44.22-14.18-15.24-3.25-32.17-5.55-49.58-6.39h-.01C178.84.13,173.97,0,169.07,0c-14.17,0-32.13.75-49.8,1.73-26.69,1.51-52.74,3.59-64.13,4.54-3.83.32-7.31,2.35-9.46,5.54-1.34,1.99-2.99,4.47-4.8,7.3-.06.1-.13.19-.18.3-4.71,7.39-10.4,17.02-14.47,26.09-.72,1.6-1.38,3.2-1.99,4.75-1.73,4.49-2.92,8.71-3.22,12.27-.04.47-.08.92-.1,1.38-1.38,18.41.1,37.76.1,37.76l-9.39,6.72Z"/>
      <path class="cls-18" d="M324.04,132.71l-189.44-4.92s4.76-9.27,32.58-11.11c27.82-1.84,102.37,1.57,125.2,5.51,22.84,3.94,31.66,10.51,31.66,10.51Z"/>
      <path class="cls-18" d="M20.91,63.9l14.17-.17s265.52,17.9,302.41,21.95c36.88,4.05,74.48,10.82,74.48,10.82l-3.13-16.8-58.88-12.36-135.93-9.19-110.34-7.39-77.47-5.27c-.72,1.6-1.38,3.2-1.99,4.75-1.73,4.49-2.92,8.71-3.22,12.27-.04.47-.08.92-.1,1.38Z"/>
      <path class="cls-4" d="M442.22,105.47c-.58-2.12-1.33-4.17-2.32-6.09-.67-1.36-1.46-2.65-2.37-3.87-4.88-6.56-11.12-11.76-18.65-16.15-7.25-.38-15.54.35-22.01,4.21-.14.09-.28.18-.41.26-9.37,6.44,26.23,16.68,45.75,21.65Z"/>
      <path class="cls-18" d="M24.23,50.24c5.11.17,12.18.4,20.63.69,15.9.54,36.68,1.26,58.51,2.06,2.3.09,4.63.17,6.96.26,14.29.52,28.82,1.07,42.57,1.63,13.78.56,31.4,1.5,50.43,2.63,3.53.21,7.1.43,10.7.65.3.01.6.04.88.05,3.25.19,6.53.4,9.82.61,33.48,2.08,68.4,4.49,92.83,6.2,2.41.17,4.71.34,6.91.48,15.62,1.13,25.49,1.85,25.49,1.85,0,0-12.69-9.34-30.2-19.78-17.79-10.61-40.54-22.37-59.99-26.62-15.26-3.34-32.06-5.76-50.1-7.26-27.56-2.32-57.98-2.47-90.14-.41-3.55.23-7.04.47-10.47.7-23.06,1.57-43.41,3.23-58.35,4.55-3.69.32-7.04.62-10.03.89-5.54,8.7-12.45,20.5-16.46,30.84Z"/>
      <path class="cls-20" d="M303.62,67.09l-88.51-4.43-111.73-6.14h-35.14s-16.11-36.64-16.11-36.64c0,0,20.85-4.98,56.7-6.17,35.84-1.19,72.67-3.57,101.76,0,29.09,3.57,50.83.82,101.95,30.87l-8.91,22.52Z"/>
      <path class="cls-18" d="M20.91,63.9c5.86,0,14.17-.17,14.17-.17l9.78-12.8,2.08-2.73c2.46-3.2,3.78-7.12,3.78-11.14v-18.56s-9.85.61-9.85.61c-.06.1-.13.19-.18.3-5.54,8.7-12.45,20.5-16.46,30.84-.82,2.1-1.5,4.14-2.03,6.08-.62,2.21-1.04,4.3-1.19,6.19-.04.47-.08.92-.1,1.38Z"/>
      <path class="cls-18" d="M315.2,103.87c-14.82-.95-29.65-1.63-44.49-2.21-7.42-.32-14.84-.54-22.26-.81l-22.27-.66-22.28-.51c-7.43-.12-14.86-.29-22.29-.36-14.86-.19-29.73-.28-44.61-.11-.72,0-1.29.4-1.28.87.01.44.53.8,1.18.84,14.82.92,29.66,1.58,44.5,2.14,7.42.31,14.84.51,22.27.77l22.27.61,22.28.47c7.43.11,14.86.26,22.29.32,14.86.16,29.73.23,44.62.03.59,0,1.05-.33,1.04-.71-.01-.36-.43-.65-.96-.68Z"/>
      <rect class="cls-10" x="229.7" y="67.34" width="15.54" height="10.8" rx="2.6" ry="2.6" transform="translate(474.94 145.48) rotate(-180)"/>
      <rect class="cls-2" x="224.73" y="70.12" width="25.18" height="5.47" rx="1.88" ry="1.88"/>
      <rect class="cls-10" x="185.63" y="65.92" width="15.54" height="10.8" rx="2.6" ry="2.6" transform="translate(386.8 142.63) rotate(-180)"/>
      <path class="cls-2" d="M180.66,70.57v1.72c0,1.05.84,1.89,1.88,1.89h21.43c1.04,0,1.88-.84,1.88-1.89v-1.72c0-1.04-.84-1.88-1.88-1.88h-21.43c-1.04,0-1.88.84-1.88,1.88Z"/>
      <path class="cls-17" d="M214.98,20.03l1.36,13.06,2.68,25.72c35.54,2.08,72.61,4.49,98.55,6.2l-.25-1.01-2.17-8.97s-25.14-18-42.47-22.67c-17.35-4.67-57.69-12.33-57.69-12.33Z"/>
      <path class="cls-17" d="M106.89,53.25c15.66.52,31.59,1.07,46.67,1.63,15.11.56,34.43,1.5,55.28,2.63l-1.56-25.65-.81-13.35c-30.51-3.18-94.57,1.53-94.57,1.53l-3.16,20.91-1.86,12.31Z"/>
      <path class="cls-18" d="M95.44,84.92s-19.44-2.54-28.1,5.07c-8.66,7.61-15.21,15.5-15.21,15.5,0,0,2.11-16.13,13.1-22.89,10.99-6.76,30.21,2.32,30.21,2.32Z"/>
      <path class="cls-11" d="M44.52,109.44c.66.59-32.9-1.07-32.9-1.07l9.39-6.72s12.09-2.47,23.51,7.78Z"/>
      <g>
        <g>
          <path class="cls-1" d="M61.53,134.9c0,17.03,13.81,30.82,30.82,30.82,10.3,0,19.42-5.05,25.01-12.81,3.65-5.07,5.81-11.28,5.81-18.01,0-17.02-13.79-30.82-30.82-30.82-11.61,0-21.73,6.43-26.97,15.92-2.46,4.41-3.86,9.5-3.86,14.91Z"/>
          <path class="cls-15" d="M106.4,116.39c-2.17,3.26-4.62,6.24-7.16,9.11-2.53,2.89-5.19,5.63-7.94,8.29-2.77,2.63-5.61,5.18-8.6,7.58-2.97,2.42-6.03,4.74-9.36,6.77l4.55,4.89c2.26-3.18,4.79-6.07,7.41-8.86,2.61-2.81,5.35-5.47,8.17-8.04,2.81-2.59,5.71-5.09,8.73-7.45,3.01-2.38,6.12-4.65,9.51-6.63l-5.33-5.65Z"/>
          <path class="cls-15" d="M89.2,111.87c.77,3.84,1.14,7.68,1.37,11.5.25,3.83.31,7.65.24,11.47-.1,3.82-.31,7.63-.72,11.44-.39,3.81-.91,7.61-1.83,11.4l6.67.24c-.65-3.85-.91-7.68-1.03-11.51-.14-3.83-.08-7.65.09-11.47.16-3.82.44-7.63.91-11.44.45-3.81,1.04-7.62,2.04-11.41l-7.76-.23Z"/>
          <path class="cls-19" d="M90.6,111.9c.41,3.89.65,7.77.82,11.65.18,3.88.28,7.75.33,11.63.03,3.87.02,7.74-.09,11.6-.09,3.86-.25,7.72-.57,11.57l2.9.18c-.36-3.89-.54-7.78-.67-11.66-.14-3.88-.18-7.75-.18-11.62,0-3.87.04-7.74.17-11.61.12-3.87.3-7.73.66-11.58l-3.37-.16Z"/>
          <path class="cls-15" d="M73.84,120.83c3.26,2.17,6.24,4.62,9.11,7.16,2.89,2.53,5.63,5.19,8.29,7.94,2.63,2.77,5.18,5.61,7.58,8.6,2.42,2.97,4.74,6.03,6.77,9.36l4.89-4.55c-3.18-2.26-6.07-4.79-8.86-7.41-2.81-2.61-5.47-5.35-8.04-8.17-2.59-2.81-5.09-5.71-7.45-8.73-2.38-3.01-4.65-6.12-6.63-9.51l-5.65,5.33Z"/>
          <path class="cls-19" d="M74.52,120.28c3.07,2.43,6,4.97,8.9,7.56,2.9,2.58,5.74,5.22,8.54,7.9,2.79,2.69,5.54,5.4,8.23,8.18,2.7,2.77,5.35,5.58,7.87,8.5l2.16-1.95c-3.03-2.47-5.94-5.05-8.8-7.68-2.87-2.62-5.67-5.29-8.44-8-2.77-2.7-5.5-5.44-8.17-8.24-2.68-2.79-5.31-5.62-7.81-8.58l-2.48,2.3Z"/>
          <path class="cls-15" d="M69.32,138.04c3.84-.77,7.68-1.14,11.5-1.37,3.83-.25,7.65-.31,11.47-.24,3.82.1,7.63.31,11.44.72,3.81.39,7.61.91,11.4,1.83l.24-6.67c-3.85.65-7.68.91-11.51,1.03-3.83.14-7.65.08-11.47-.09-3.82-.16-7.63-.44-11.44-.91-3.81-.45-7.62-1.04-11.41-2.04l-.23,7.76Z"/>
          <path class="cls-19" d="M69.22,137.18c3.89-.42,7.77-.66,11.65-.84,3.88-.19,7.75-.29,11.63-.35,3.87-.04,7.74-.03,11.6.07,3.86.09,7.72.24,11.57.56l.18-2.9c-3.89.36-7.78.56-11.66.69-3.88.14-7.75.2-11.62.2-3.87.01-7.74-.03-11.61-.15-3.87-.12-7.73-.29-11.58-.65l-.16,3.37Z"/>
          <path class="cls-19" d="M75.77,151.53c2.74-2.79,5.58-5.44,8.47-8.04,2.88-2.61,5.8-5.15,8.76-7.65,2.97-2.49,5.96-4.94,9.01-7.31,3.04-2.39,6.12-4.72,9.29-6.92l-1.7-2.35c-2.78,2.75-5.65,5.37-8.57,7.93-2.91,2.57-5.87,5.07-8.85,7.54-2.98,2.47-6,4.89-9.06,7.25-3.06,2.37-6.16,4.68-9.36,6.86l2.02,2.71Z"/>
          <path class="cls-9" d="M68.13,134.9c0,13.35,10.87,24.22,24.22,24.22,13.35,0,24.22-10.87,24.22-24.22,0-13.35-10.87-24.22-24.22-24.22s-24.22,10.87-24.22,24.22ZM70.91,137.74c-.13-.93-.19-1.88-.19-2.85,0-1.45.14-2.86.41-4.23.66-3.3,2.07-6.34,4.05-8.92,1.44-1.88,3.18-3.52,5.16-4.84,2.68-1.8,5.8-3.01,9.15-3.45.93-.13,1.89-.19,2.86-.19,1.44,0,2.85.14,4.22.41,3.3.65,6.34,2.06,8.92,4.04,1.88,1.45,3.52,3.18,4.84,5.16,1.9,2.82,3.14,6.11,3.53,9.65.09.78.13,1.57.13,2.37,0,1.27-.1,2.52-.32,3.73-.63,3.66-2.2,7.01-4.44,9.8-1.28,1.59-2.77,3-4.45,4.18-2.91,2.06-6.35,3.4-10.07,3.8-.78.09-1.57.13-2.36.13-1.28,0-2.52-.12-3.74-.32-3.66-.63-7.01-2.2-9.8-4.44-1.59-1.28-2.99-2.78-4.17-4.45-1.97-2.78-3.29-6.04-3.74-9.58Z"/>
          <circle class="cls-15" cx="92.16" cy="134.62" r="3.88"/>
          <path class="cls-9" d="M90.61,134.62c0,.85.69,1.55,1.55,1.55s1.55-.69,1.55-1.55c0-.85-.69-1.55-1.55-1.55s-1.55.69-1.55,1.55Z"/>
          <path class="cls-9" d="M87.62,134.63c0,.63.13,1.24.36,1.79.05.1.1.21.16.3.5,1,1.37,1.76,2.43,2.15.03.03.05.04.09.04.47.17.97.26,1.5.26.61,0,1.2-.12,1.73-.35,1.02-.43,1.86-1.22,2.34-2.21,0,0,.01-.01,0-.03.3-.58.45-1.24.45-1.94,0-.43-.06-.84-.17-1.23,0-.01-.01-.03-.01-.04-.32-1.14-1.09-2.1-2.1-2.67-.05-.04-.1-.06-.16-.09-.62-.34-1.35-.52-2.1-.52-.47,0-.92.06-1.33.21-.09.03-.18.05-.27.09-1.11.41-2.02,1.27-2.52,2.34-.04.08-.08.17-.1.26-.21.5-.31,1.06-.31,1.64ZM89.44,136.4c-.13-.18-.23-.39-.31-.6-.14-.36-.22-.76-.22-1.18,0-.32.05-.63.13-.92.06-.22.16-.44.26-.63.35-.62.88-1.13,1.54-1.41.21-.1.43-.17.65-.22.22-.04.44-.06.67-.06.47,0,.91.1,1.31.27.25.1.48.25.69.41.43.34.76.76.97,1.27.14.32.23.69.26,1.06.01.08.01.16.01.23,0,.34-.05.65-.14.94-.1.34-.26.66-.47.93-.22.32-.52.61-.85.83-.3.19-.63.35-.98.43-.26.06-.52.1-.79.1-.17,0-.34-.01-.5-.04-.34-.05-.65-.16-.93-.3-.52-.25-.97-.65-1.28-1.13Z"/>
        </g>
        <path class="cls-14" d="M61.53,134.9c0,17.03,13.81,30.82,30.82,30.82,10.3,0,19.42-5.05,25.01-12.81-7.19,5.06-16.06,7.72-24.86,7.44-7.98-.27-16.19-3.14-21.38-9.24-3.92-4.61-5.81-10.7-6.33-16.74-.41-4.79-.01-9.6.58-14.38-2.46,4.41-3.86,9.5-3.86,14.91Z"/>
        <path class="cls-12" d="M74.52,111.55c6.49-5.2,15.29-7.4,23.46-5.88,8.18,1.52,15.59,6.74,19.78,13.93,4.19,7.18,5.08,16.21,2.38,24.07-.24-10.5-6.71-20.16-15.46-25.96-8.75-5.8-19.82-7.99-30.16-6.16Z"/>
      </g>
      <g>
        <g>
          <path class="cls-1" d="M341.98,134.9c0,17.03,13.81,30.82,30.82,30.82,10.3,0,19.42-5.05,25.01-12.81,3.65-5.07,5.81-11.28,5.81-18.01,0-17.02-13.79-30.82-30.82-30.82-11.61,0-21.73,6.43-26.97,15.92-2.46,4.41-3.86,9.5-3.86,14.91Z"/>
          <path class="cls-15" d="M386.86,116.39c-2.17,3.26-4.62,6.24-7.16,9.11-2.53,2.89-5.19,5.63-7.94,8.29-2.77,2.63-5.61,5.18-8.6,7.58-2.97,2.42-6.03,4.74-9.36,6.77l4.55,4.89c2.26-3.18,4.79-6.07,7.41-8.86,2.61-2.81,5.35-5.47,8.17-8.04,2.81-2.59,5.71-5.09,8.73-7.45,3.01-2.38,6.12-4.65,9.51-6.63l-5.33-5.65Z"/>
          <path class="cls-15" d="M369.65,111.87c.77,3.84,1.14,7.68,1.37,11.5.25,3.83.31,7.65.24,11.47-.1,3.82-.31,7.63-.72,11.44-.39,3.81-.91,7.61-1.83,11.4l6.67.24c-.65-3.85-.91-7.68-1.03-11.51-.14-3.83-.08-7.65.09-11.47.16-3.82.44-7.63.91-11.44.45-3.81,1.04-7.62,2.04-11.41l-7.76-.23Z"/>
          <path class="cls-19" d="M371.05,111.9c.41,3.89.65,7.77.82,11.65.18,3.88.28,7.75.33,11.63.03,3.87.02,7.74-.09,11.6-.09,3.86-.25,7.72-.57,11.57l2.9.18c-.36-3.89-.54-7.78-.67-11.66-.14-3.88-.18-7.75-.18-11.62,0-3.87.04-7.74.17-11.61.12-3.87.3-7.73.66-11.58l-3.37-.16Z"/>
          <path class="cls-15" d="M354.29,120.83c3.26,2.17,6.24,4.62,9.11,7.16,2.89,2.53,5.63,5.19,8.29,7.94,2.63,2.77,5.18,5.61,7.58,8.6,2.42,2.97,4.74,6.03,6.77,9.36l4.89-4.55c-3.18-2.26-6.07-4.79-8.86-7.41-2.81-2.61-5.47-5.35-8.04-8.17-2.59-2.81-5.09-5.71-7.45-8.73-2.38-3.01-4.65-6.12-6.63-9.51l-5.65,5.33Z"/>
          <path class="cls-19" d="M354.97,120.28c3.07,2.43,6,4.97,8.9,7.56,2.9,2.58,5.74,5.22,8.54,7.9,2.79,2.69,5.54,5.4,8.23,8.18,2.7,2.77,5.35,5.58,7.87,8.5l2.16-1.95c-3.03-2.47-5.94-5.05-8.8-7.68-2.87-2.62-5.67-5.29-8.44-8-2.77-2.7-5.5-5.44-8.17-8.24-2.68-2.79-5.31-5.62-7.81-8.58l-2.48,2.3Z"/>
          <path class="cls-15" d="M349.77,138.04c3.84-.77,7.68-1.14,11.5-1.37,3.83-.25,7.65-.31,11.47-.24,3.82.1,7.63.31,11.44.72,3.81.39,7.61.91,11.4,1.83l.24-6.67c-3.85.65-7.68.91-11.51,1.03-3.83.14-7.65.08-11.47-.09-3.82-.16-7.63-.44-11.44-.91-3.81-.45-7.62-1.04-11.41-2.04l-.23,7.76Z"/>
          <path class="cls-19" d="M349.67,137.18c3.89-.42,7.77-.66,11.65-.84,3.88-.19,7.75-.29,11.63-.35,3.87-.04,7.74-.03,11.6.07,3.86.09,7.72.24,11.57.56l.18-2.9c-3.89.36-7.78.56-11.66.69-3.88.14-7.75.2-11.62.2-3.87.01-7.74-.03-11.61-.15-3.87-.12-7.73-.29-11.58-.65l-.16,3.37Z"/>
          <path class="cls-19" d="M356.22,151.53c2.74-2.79,5.58-5.44,8.47-8.04,2.88-2.61,5.8-5.15,8.76-7.65,2.97-2.49,5.96-4.94,9.01-7.31,3.04-2.39,6.12-4.72,9.29-6.92l-1.7-2.35c-2.78,2.75-5.65,5.37-8.57,7.93-2.91,2.57-5.87,5.07-8.85,7.54-2.98,2.47-6,4.89-9.06,7.25-3.06,2.37-6.16,4.68-9.36,6.86l2.02,2.71Z"/>
          <path class="cls-9" d="M348.58,134.9c0,13.35,10.87,24.22,24.22,24.22s24.22-10.87,24.22-24.22-10.87-24.22-24.22-24.22c-13.35,0-24.22,10.87-24.22,24.22ZM351.36,137.74c-.13-.93-.19-1.88-.19-2.85,0-1.45.14-2.86.41-4.23.66-3.3,2.07-6.34,4.05-8.92,1.44-1.88,3.18-3.52,5.16-4.84,2.68-1.8,5.8-3.01,9.15-3.45.93-.13,1.89-.19,2.86-.19,1.44,0,2.85.14,4.22.41,3.3.65,6.34,2.06,8.92,4.04,1.88,1.45,3.52,3.18,4.84,5.16,1.9,2.82,3.14,6.11,3.53,9.65.09.78.13,1.57.13,2.37,0,1.27-.1,2.52-.32,3.73-.63,3.66-2.2,7.01-4.44,9.8-1.28,1.59-2.77,3-4.45,4.18-2.91,2.06-6.35,3.4-10.07,3.8-.78.09-1.57.13-2.36.13-1.28,0-2.52-.12-3.74-.32-3.66-.63-7.01-2.2-9.8-4.44-1.59-1.28-2.99-2.78-4.17-4.45-1.97-2.78-3.29-6.04-3.74-9.58Z"/>
          <circle class="cls-15" cx="372.61" cy="134.62" r="3.88"/>
          <circle class="cls-9" cx="372.61" cy="134.62" r="1.55"/>
          <path class="cls-9" d="M368.07,134.63c0,.63.13,1.24.36,1.79.05.1.1.21.16.3.5,1,1.37,1.76,2.43,2.15.03.03.05.04.09.04.47.17.97.26,1.5.26.61,0,1.2-.12,1.73-.35,1.02-.43,1.86-1.22,2.34-2.21,0,0,.01-.01,0-.03.3-.58.45-1.24.45-1.94,0-.43-.06-.84-.17-1.23,0-.01-.01-.03-.01-.04-.32-1.14-1.09-2.1-2.1-2.67-.05-.04-.1-.06-.16-.09-.62-.34-1.35-.52-2.1-.52-.47,0-.92.06-1.33.21-.09.03-.18.05-.27.09-1.11.41-2.02,1.27-2.52,2.34-.04.08-.08.17-.1.26-.21.5-.31,1.06-.31,1.64ZM369.89,136.4c-.13-.18-.23-.39-.31-.6-.14-.36-.22-.76-.22-1.18,0-.32.05-.63.13-.92.06-.22.16-.44.26-.63.35-.62.88-1.13,1.54-1.41.21-.1.43-.17.65-.22.22-.04.44-.06.67-.06.47,0,.91.1,1.31.27.25.1.48.25.69.41.43.34.76.76.97,1.27.14.32.23.69.26,1.06.01.08.01.16.01.23,0,.34-.05.65-.14.94-.1.34-.26.66-.47.93-.22.32-.52.61-.85.83-.3.19-.63.35-.98.43-.26.06-.52.1-.79.1-.17,0-.34-.01-.5-.04-.34-.05-.65-.16-.93-.3-.52-.25-.97-.65-1.28-1.13Z"/>
        </g>
        <path class="cls-14" d="M341.98,134.9c0,17.03,13.81,30.82,30.82,30.82,10.3,0,19.42-5.05,25.01-12.81-7.19,5.06-16.06,7.72-24.86,7.44-7.98-.27-16.19-3.14-21.38-9.24-3.92-4.61-5.81-10.7-6.33-16.74-.41-4.79-.01-9.6.58-14.38-2.46,4.41-3.86,9.5-3.86,14.91Z"/>
        <path class="cls-12" d="M354.97,111.55c6.49-5.2,15.29-7.4,23.46-5.88,8.18,1.52,15.59,6.74,19.78,13.93,4.19,7.18,5.08,16.21,2.38,24.07-.24-10.5-6.71-20.16-15.46-25.96-8.75-5.8-19.82-7.99-30.16-6.16Z"/>
      </g>
      <path class="cls-5" d="M222.64,146.22h-.29s-13.04-132.9-13.04-132.9l.39.03c18.14,1.51,35.01,3.95,50.14,7.27,16.1,3.51,36.32,12.48,60.09,26.66l.11.07,4.69,17.67,2.61,21.49v.03s-5.67,59.83-5.67,59.83l-99.03-.15ZM324.15,65.53l-.05-.37-4.62-17.4c-23.66-14.1-43.77-23.02-59.78-26.51-15-3.28-31.71-5.71-49.67-7.22l4.32,44.09,8.58,87.45,98.15.15,5.61-59.17-2.54-21.01Z"/>
      <path class="cls-5" d="M135.95,146.01c.01-.18,1.42-17.87-4.72-31.19-6.14-13.27-24.15-20.62-24.33-20.69l-.18-.07-3.67-26.67v-14.39s5.73-39.33,5.73-39.33l.26-.02c3.43-.23,6.92-.47,10.47-.7,32.12-2.05,62.46-1.92,90.19.41l.27.02,13.03,132.84-87.08.15.03-.35ZM213.71,58.18l-4.33-44.2c-27.62-2.31-57.84-2.44-89.82-.39-3.46.23-6.86.45-10.21.68l-5.65,38.74v14.3s3.62,26.28,3.62,26.28c1.9.8,18.59,8.16,24.51,20.95,5.73,12.43,4.97,28.58,4.8,31.16l85.66-.14-8.58-87.38Z"/>
      <path class="cls-19" d="M442.22,105.47c-.58-2.12-1.33-4.17-2.32-6.09-17.69-2.64-37.81-12.62-43.44-15.55-9.37,6.44,26.23,16.68,45.75,21.65Z"/>
      <path class="cls-11" d="M22.2,56.33h9.3s7.38-6.15,13.02-14.19c5.65-8.06,6.2-23.63,6.2-23.63l-9.85.61c-.06.1-.13.19-.18.3-5.54,8.7-12.45,20.5-16.46,30.84-.82,2.1-1.5,4.14-2.03,6.08Z"/>
      <path class="cls-4" d="M11.62,118.59v2.79c0,4.35,2.92,8.16,7.12,9.29l33.55,9.03.76.06c.12-2.04.35-4.8.75-8.02l-42.18-13.16Z"/>
      <path class="cls-4" d="M130.14,146.74l2.95.27h202.39c-.05-1.99-.06-5.47.21-9.82h-.01s-205.16-.01-205.16-.01c.23,4.89-.23,8.55-.38,9.56Z"/>
      <path class="cls-4" d="M412.84,146.92l27.32-3.04s1.22-3.88,2.25-9.67l-29.72,4.21c.39,4.06.25,7.21.16,8.5Z"/>
      <path class="cls-3" d="M180.66,70.57v.96c8.36-1.02,16.87-.79,25.18.66v-1.62c0-1.04-.84-1.88-1.88-1.88h-21.43c-1.04,0-1.88.84-1.88,1.88Z"/>
      <path class="cls-3" d="M224.73,72v1c8.35-1.11,16.86-1.01,25.18.34v-1.33c0-1.04-.84-1.88-1.88-1.88h-21.43c-1.04,0-1.88.84-1.88,1.88Z"/>
      <path class="cls-17" d="M69.21,48.07l1.51,3.33-.14.47,27.5.9,2.05-10.71c-5.14.87-9.78,1.69-13.97,2.49-.6.11-1.19.23-1.77.34-.67.12-1.32.25-1.96.38-.73.13-1.45.28-2.15.42-.56.11-1.11.22-1.65.34-1.62.33-3.15.65-4.61.96-.43.1-.86.19-1.27.28-1.25.27-2.43.54-3.55.79h.01Z"/>
      <g>
        <path class="cls-21" d="M272.67,32.36c-17.35-4.67-57.69-12.33-57.69-12.33l1.36,13.06c35.6,3.29,70.87,13.04,100.98,30.91l-2.17-8.97s-25.14-18-42.47-22.67Z"/>
        <path class="cls-21" d="M108.75,40.94c32.49-6.06,65.51-9.85,98.54-9.08l-.81-13.35c-30.51-3.18-94.57,1.53-94.57,1.53l-3.16,20.91Z"/>
        <path class="cls-21" d="M69.21,48.07c1.11-.25,2.3-.52,3.54-.8.41-.09.84-.18,1.27-.28,1.46-.31,2.99-.63,4.61-.96.54-.12,1.09-.23,1.65-.34.7-.14,1.42-.29,2.15-.42.64-.13,1.29-.26,1.96-.38.58-.11,1.17-.23,1.77-.34,4.14-.8,8.72-1.63,13.78-2.49l4.23-22.24c-31.14,1.75-42.32,3.61-45.83,4.38l10.86,23.86h.01Z"/>
        <path class="cls-21" d="M214.98,20.03s67.6,2.44,100.17,35v6.73l-37.53-22.18-50.55-10.41-12.09-9.14Z"/>
      </g>
      <path class="cls-2" d="M326.94,63.51c2.54-5.45.26-12.46-4.61-15.98-4.87-3.52-11.73-3.67-17.14-1.06-5.41,2.61-9.4,7.69-11.47,13.33,4.1,4.15,9.9,6.66,15.69,7.35,5.79.69,12.57-.57,17.53-3.65Z"/>
      <path class="cls-7" d="M297.01,59c1.71-3.3,4.21-6.18,7.22-8.35,2.58-1.86,5.6-3.21,8.77-3.48s6.5.59,8.89,2.7c2.94,2.59,4.12,6.66,4.4,10.57-4.98.66-9.7,1.47-14.72,1.45-5.02-.02-9.95-.88-14.55-2.88Z"/>
      <path class="cls-6" d="M68.13,5.23l-35.42,1.97,11.32,7.08s-24.64,35.53-23.12,49.63l3.33-.04s7.22-32.02,24.79-49.59l-8.08-5.22,27.19-3.82Z"/>
      <path class="cls-22" d="M35.08,63.73l-3.37,16.37h-11.39s-3.12-9.28.59-16.2l8.54-.1,5.63-.07Z"/>
      <path class="cls-16" d="M20.32,80.1s-3.12-9.28.59-16.2l8.54-.1c.11.95,1.03,10.85-9.13,16.3Z"/>
      <polygon class="cls-11" points="64.72 5.7 37.96 8.11 47.46 15.9 66 10.8 64.72 5.7"/>
      <line class="cls-8" x1="69.21" y1="48.07" x2="69.2" y2="48.06"/>
      <polygon class="cls-20" points="104.17 19.82 111.92 19.82 106.89 53.25 98.08 52.77 104.17 19.82"/>
      <polygon class="cls-20" points="206.48 18.5 214.98 20.03 219.02 58.81 208.85 58.81 206.48 18.5"/>
    </g>
  </g>
</svg>