<?xml version="1.0" encoding="UTF-8"?>
<svg id="Layer_2" data-name="Layer 2" xmlns="http://www.w3.org/2000/svg" viewBox="0 0 395.96 148.1">
  <defs>
    <style>
      .cls-1 {
        fill: #5c2025;
      }

      .cls-1, .cls-2, .cls-3, .cls-4, .cls-5, .cls-6, .cls-7, .cls-8, .cls-9, .cls-10, .cls-11, .cls-12, .cls-13, .cls-14, .cls-15, .cls-16, .cls-17, .cls-18, .cls-19, .cls-20 {
        stroke-width: 0px;
      }

      .cls-2 {
        fill: #0b0606;
      }

      .cls-3 {
        fill: #191919;
      }

      .cls-4 {
        fill: #254e80;
      }

      .cls-5 {
        fill: #f1f2f2;
        opacity: .32;
      }

      .cls-6 {
        fill: #767676;
      }

      .cls-7 {
        fill: #e3e3e3;
      }

      .cls-8 {
        fill: #d96c31;
      }

      .cls-9 {
        fill: #232122;
      }

      .cls-10 {
        fill: #bcbcbc;
      }

      .cls-11 {
        fill: #999896;
      }

      .cls-12 {
        fill: #272626;
      }

      .cls-13 {
        fill: #989898;
      }

      .cls-14 {
        opacity: .2;
      }

      .cls-14, .cls-16 {
        fill: #fff;
      }

      .cls-15 {
        fill: #4f7ec0;
      }

      .cls-17 {
        fill: #305d92;
      }

      .cls-18 {
        fill: #232020;
      }

      .cls-19 {
        fill: #5a5b5b;
      }

      .cls-20 {
        fill: #c7202c;
      }
    </style>
  </defs>
  <g id="Layer_1-2" data-name="Layer 1">
    <g>
      <path class="cls-11" d="M394.03,141.63c0,3.57-86.15,6.47-192.42,6.47s-192.42-2.9-192.42-6.47,86.15-6.47,192.42-6.47,192.42,2.9,192.42,6.47Z"/>
      <path class="cls-7" d="M391.91,90.43c1.12,7.07,2.74,16.13,2.74,16.13,5.26,2.14-6.04,24.66-19.53,24.66,0,0-210.9-.6-342.96-.6-3.83,0-16.16-.6-22.62-2-3.27-.71-14.24-32.99-7.24-34.68,1.43-10.53.2-29.1,1.88-39.83-1.34-4.22,5.3-12.6,8.07-16.72,1.12-2.23,7.69-14.94,17.26-26.08.07-.08.15-.18.24-.29C31.9,8.41,38.22.72,59.97.07l1.54-.05c8.48-.26,96.92,1.75,105.28,1.67.77,0,1.49-.01,2.16-.01,14.7-.02,35.24,2.3,49.78,8.99l85.43,37.26c8.94,4.14,34.96,9.25,40.62,10.71,43.78,11.29,45.94,24.65,47.13,31.8Z"/>
      <path class="cls-10" d="M275.58,56.9c-.55,0-1.18-.02-1.84-.07l-240.71-13.82c-4.82-.32-8.85-2.65-10.52-6.08-1.25-2.57-1.01-5.38.67-7.93.58-1.3,4.79-10.47,12.04-19.06.06-.07.13-.15.2-.25,1.63-2.03,6.59-8.19,25.5-8.58.29,0,.67,0,1.13,0,7.82,0,40.61.84,66.96,1.51,16.95.43,31.58.81,34.69.83,14.67.12,34.44,2.41,45.95,8.5l51.3,27.38c19.19,10.24,20.29,13.04,19.75,15.2-.59,2.37-3.89,2.37-5.13,2.37Z"/>
      <path class="cls-9" d="M273.84,55.14l-110.47-6.34-4.08-.24-80.86-4.64h-.01l-5.84-.33-39.46-2.27c-7.34-.49-12.11-6.15-8.46-11.51,0,0,4.26-9.8,11.85-18.79,1.27-1.51,5.32-7.84,24.44-8.23,8.22-.17,94.52,2.27,102.74,2.33,13.77.11,33.72,2.25,45.17,8.31l51.3,27.38c14.92,7.96,25.9,15.15,13.68,14.33Z"/>
      <path class="cls-18" d="M62.37,4.45l-1.38.03c-14.37.3-19.72,3.95-21.93,6.17,1.61,10.19,4.44,20.1,8,29.79l25.91,1.49c.53-2.72,1.11-5.44,1.75-8.15,1.95-8.27,4.35-16.44,7.38-24.38.59-1.54,1.24-3.05,1.93-4.55-11.07-.27-19.47-.45-21.67-.4Z"/>
      <path class="cls-18" d="M87.22,11.32c-2.91,7.71-5.32,15.6-7.21,23.62-.57,2.42-1.09,4.85-1.57,7.29l80.01,4.53c-.27-15.94-2.25-27.14-4.2-40.38-14.82-.36-44.5-.89-64.28-1.39-.99,2.07-1.94,4.17-2.75,6.32Z"/>
      <path class="cls-18" d="M208.08,14.92c-10.98-5.8-30.13-8-44.4-8.11-.65,0-1.36,0-2.12,0-.64,0-1.75-.02-3.24-.04,2.25,13.31,3.35,26.79,3.89,40.29l78.11,4.48c2.27-5.26,4.5-10.53,6.82-15.76l-39.07-20.85Z"/>
      <path class="cls-16" d="M2.45,113.02c2.28,7.88,5.54,15.26,7.09,15.6,6.46,1.4,18.79,2,22.62,2,132.07,0,342.96.6,342.96.6,5.45,0,9.56-3.3,13.72-7.29,4.97-9.89.97-10.49.97-10.49-60.39-.03-387.36-.42-387.36-.42Z"/>
      <path class="cls-3" d="M355.74,126.06c-21.89,0-8.72-5.02-87.4-5.02-27.55,0-61.18,4.15-96.1,4.11-9.2-.01-61.49-6.58-70.5-6.59-23.23-.02-49.07,6.45-69.58,6.45-3.83,0-16.16-.59-22.62-2-2.24-.49-3.62-.7-4.13-1.37,1.61,3.96,3.19,6.78,4.13,6.99,6.46,1.4,18.82,2.35,22.65,2.35,132.07,0,342.94.25,342.94.25,5.15,0,9.97-3.28,13.68-7.45-8.2.22-6.24,2.29-33.06,2.29Z"/>
      <path class="cls-9" d="M220.76,15.51c4.35,2.13,55.56,28.15,61.71,30.86,16.59,7.3,30.53,8.13,34.91,5.84-5.38-1.42-10.25-2.91-13.23-4.29L217.22,10c-.78-.21-3.59,2.03,3.54,5.51Z"/>
      <path class="cls-18" d="M222.75,15.51c4.35,2.13,54.46,27.03,60.55,29.86,12.1,5.63,28.15,7.46,34.08,6.84-5.38-1.42-10.25-2.91-13.23-4.29L218.73,10.67c-2.27-1.04-3.11,1.36,4.02,4.84Z"/>
      <path class="cls-3" d="M280.86,52.9l-.4.14c1.02,2.88,1.15,6.87-1.08,19.68-21.41,15.17-21.77,30.6-21.94,38.02-.02.95-.05,1.76-.11,2.42-2.66,0-41.57-.08-85.67-.14h0c-.06,0-.1,0-.16,0-.96,0-1.92,0-2.89,0-.36-.09-.71-.23-1.04-.51-2.76-2.44-4.67-13.34-6.87-63.87l-.42.02c2.22,50.96,4.1,61.59,7.01,64.16.11.1.23.12.35.2-19.75-.03-40.33-.06-58.99-.08l.02-.25c.33-4.78,1.22-17.48-6.69-27.74-4.86-6.31-11.35-9.9-17.06-13.06-6.74-3.72-12.06-6.67-11.51-12.53l.07-.76c.22-2.45.68-7.56,1.93-14.82l-.42-.07c-1.25,7.27-1.71,12.39-1.93,14.85l-.07.76c-.58,6.13,4.85,9.13,11.72,12.93,5.68,3.14,12.12,6.71,16.94,12.95,7.8,10.13,6.93,22.71,6.6,27.45l-.05.71h.23c19.01.02,40.03.05,60.16.08.28.06.57.11.87.11.34,0,.68-.03,1.03-.05.33-.03.67-.05,1.03-.05,45.41.07,85.43.14,86.01.14v-.21l.21.02c.08-.7.1-1.6.12-2.64.17-7.36.52-22.68,21.83-37.74l.07-.05.02-.08c2.27-12.97,2.13-17.03,1.08-19.98Z"/>
      <g>
        <path class="cls-4" d="M186.85,58.51c0,1.63-1.32,2.86-2.95,2.76l-15.46-1.02c-1.63-.11-2.95-1.52-2.95-3.14h0c0-1.63,1.32-2.86,2.95-2.76l15.46,1.02c1.63.11,2.95,1.51,2.95,3.14h0Z"/>
        <path class="cls-15" d="M183.87,55.79l-15.46-1.02c-.06,0-.11,0-.17,0-.99,0-1.81.58-2.16,1.43.31,1.08,1.29,1.92,2.45,2l15.46,1.02c.06,0,.11,0,.17,0,.99,0,1.81-.58,2.16-1.43-.31-1.08-1.29-1.92-2.45-2Z"/>
      </g>
      <g>
        <path class="cls-4" d="M97.91,52.4c0,1.63-1.32,2.86-2.95,2.76l-15.46-1.02c-1.63-.11-2.95-1.51-2.95-3.14h0c0-1.63,1.32-2.86,2.95-2.76l15.46,1.02c1.63.11,2.95,1.52,2.95,3.14h0Z"/>
        <path class="cls-15" d="M94.93,49.68l-15.46-1.02c-.06,0-.11,0-.17,0-.99,0-1.81.58-2.16,1.43.31,1.08,1.29,1.92,2.45,2l15.46,1.02c.06,0,.11,0,.17,0,.99,0,1.81-.58,2.16-1.43-.31-1.08-1.29-1.92-2.45-2Z"/>
      </g>
      <path class="cls-16" d="M392.96,106.56s-42.98,2.11-45.93,2.11-9.57-36.5-46.66-36.5c-32.92,0-40.8,27.64-38.6,41.19h.72c1.51-21.62,18.86-37.07,38.96-35.52,25.88,2,35.24,26.4,34.54,35.36-.15.29,33.08-.19,53.81.24,3,1.72.06,9.06.06,9.06,0,0,11.09-15.49,3.09-15.94Z"/>
      <path class="cls-14" d="M103.73,106.64c0-20.24-17.37-36.65-38.81-36.65s-38.81,16.41-38.81,36.65c0,1.73.01,3.93.02,6.24h2.14v-.06c0-20.24,16.41-36.65,36.65-36.65s36.65,16.41,36.65,36.65c0,.07,0,.16,0,.27h2c.21-3.12.14-5.85.14-6.45Z"/>
      <path class="cls-16" d="M82.73,70.31l188.83,10.12-166.49,9.69s-4.22-10.96-22.34-19.81Z"/>
      <path class="cls-16" d="M28.92,15.66s-20.63,24.54,4.1,27.35c19.33,2.2,273.4,16.43,273.4,16.43,0,0-28.16,3.76-75.28,3.45-75.77-.49-166.55-5.36-195.48-5.36-11.69,0-41.87-2.81-6.74-41.87Z"/>
      <path class="cls-14" d="M4.94,97.03c-3.84-.14-4.48,6.2-4.48,6.2,0,0-1.69-7.96,1.83-9.28,5.73.19,21.36,1.51,25.58,1.8-.63.87-9.54,1.76-22.93,1.29Z"/>
      <path class="cls-1" d="M2.49,73.58c5.62,0,9.29,1.93,9.29-4.81s-1.69-25.57,1.97-32.6c3.65-7.02,12.36-19.95,12.36-19.95,0,0-1.69-1.41-6.18,5.06C15.43,27.74,2.23,47.97,2.23,49.94s-1.14,23.64.27,23.64Z"/>
      <path class="cls-20" d="M16.75,28.18c2.82-4.61,5.93-9.34,7.39-11.54-.98.64-2.35,1.96-4.21,4.63-.82,1.17-1.92,2.81-3.18,4.7v2.21Z"/>
      <path class="cls-20" d="M11.31,39.24v-4.95c-4.62,7.2-9.08,14.51-9.08,15.66,0,.8-.19,4.84-.32,9.37h8.48c-.21-6.52-.3-14.54.92-20.07Z"/>
      <path class="cls-8" d="M10.66,67.74c0-.84-.03-1.85-.07-2.99H1.8c-.01,1.04-.01,2.05,0,2.99h8.86Z"/>
      <path class="cls-5" d="M240,29.52c-1.37-.4-45.58-13.13-118.82-13.13-64.01,0-88.25,5.41-93.77,6.93-.9.24-1.3.38-1.3.38l2-3.94,7.27-10.4,5.24-4.19,16.53-3.41h10.98l29.87.77,26.41.85,28.02.46h13.15l25.81,2.67,15.23,4.94,32.53,17.6.85.47Z"/>
      <path class="cls-14" d="M394.46,115.01c-.45-2.58-1.66-9.47-2.56-15.1-1.19-7.15-3.34-20.51-47.12-31.8-5.66-1.46-31.69-6.57-40.62-10.71l-65.01-28.35-32.53-17.6-15.23-4.94-25.81-2.67h-13.15l-28.02-.46-26.41-.85-29.87-.77h-10.98l-16.53,3.41-5.24,4.19-7.27,10.4-2,3.94s.4-.14,1.3-.38c-8.44,10.46-14.13,21.5-15.17,23.56-2.78,4.11-9.42,12.49-8.08,16.72-1.68,10.72-.44,29.29-1.87,39.82-.79.19-1.35.77-1.72,1.65-1-5.78-.85-10.51,1.72-11.13,1.43-10.53.19-29.1,1.87-39.83-1.34-4.22,5.3-12.6,8.08-16.72,1.12-2.23,7.68-14.93,17.26-26.08.07-.08.15-.18.24-.29C31.89,8.41,38.22.72,59.96.07l1.54-.05c8.48-.26,96.92,1.75,105.28,1.67.78,0,1.5-.02,2.16-.02,14.7-.01,35.24,2.31,49.79,8.99l85.22,37.67c8.94,4.13,35.17,8.84,40.83,10.3,43.78,11.29,45.93,24.64,47.12,31.8,1.13,7.07,2.74,16.13,2.74,16.13,1.93.78,1.63,4.3-.18,8.45Z"/>
      <path class="cls-17" d="M392.14,90.45s-12.43-.2-14.99-.2-5.92-15.19-22.29-19.33c14.99,1.78,31.56,5.13,35.71,13.41,1.38,4.73,1.58,6.12,1.58,6.12Z"/>
      <path class="cls-16" d="M388.99,85.33c-3.51-7.02-15.95-10.5-28.79-12.48,11.83,5.64,14.7,17.41,16.96,17.41,1.96,0,9.67.12,13.21.17-.21-.9-.61-2.49-1.37-5.1Z"/>
      <path class="cls-19" d="M370.63,81.42s8.22-3.93,7.82-4.09c-5.22-2.07-11.68-3.48-18.26-4.49,4.74,2.26,8.03,5.5,10.43,8.58Z"/>
      <path class="cls-8" d="M374.3,86.86c1.24,2.03,2.09,3.4,2.86,3.4,1.96,0,9.67.12,13.21.17-.16-.71-.45-1.85-.93-3.57h-15.13Z"/>
      <path class="cls-17" d="M392.2,92.25h-11.81c-1.74,0-3.16,1.41-3.16,3.16s1.41,3.16,3.16,3.16h12.87c-.34-2.02-.71-4.21-1.05-6.31Z"/>
      <path class="cls-16" d="M391.96,95.4c0-1.31-1.06-2.37-2.37-2.37h-11.29c-.66.58-1.07,1.42-1.07,2.37s.42,1.79,1.07,2.37h11.29c1.31,0,2.37-1.06,2.37-2.37Z"/>
      <path class="cls-19" d="M218.73,10.67l14.51,6.33c-.82.82-1.65,1.65-2.48,2.48-4.14-2.05-7.09-3.51-8.01-3.96-7.13-3.48-6.29-5.89-4.02-4.84ZM280.3,37.52l-4.05-1.76c-1.39,1.39-2.77,2.77-4.16,4.16,1.39.68,2.7,1.33,3.9,1.91l4.31-4.31ZM262.49,29.75l-20.87-9.1-2.81,2.81c6.15,3.05,13.29,6.58,20.05,9.93,1.21-1.21,2.42-2.42,3.63-3.63Z"/>
      <g>
        <g>
          <g>
            <path class="cls-3" d="M64.94,76.17c20.24,0,36.65,16.41,36.65,36.65,0,1.15.23,8.82.47,17.95-30.4-.08-62.37-.15-73.74-.15.04-4.62-.04-12.98-.04-17.8,0-20.24,16.41-36.65,36.65-36.65Z"/>
            <path class="cls-3" d="M300.04,78.27c20.24.35,36.36,17.05,36.01,37.29-.02,1.01-.06,7.78.01,15.51-19.44.24-41.6-.44-61.09-.2-3.45.04-7.74.07-12.7.09.22-8.28.45-15.18.48-16.69.35-20.24,17.05-36.36,37.29-36.01Z"/>
          </g>
          <g>
            <path class="cls-2" d="M268.64,113.41c0,17.27,14,31.27,31.27,31.27s31.27-14,31.27-31.27-14-31.27-31.27-31.27-31.27,14-31.27,31.27Z"/>
            <path class="cls-6" d="M275.75,113.41c0,13.34,10.81,24.15,24.15,24.15s24.15-10.81,24.15-24.15-10.81-24.15-24.15-24.15-24.15,10.81-24.15,24.15ZM280.19,120.74l3.06-.49-2.52,1.82c-.2-.44-.38-.88-.54-1.34ZM279.24,117.36c-.24-1.28-.38-2.6-.38-3.94s.14-2.6.37-3.86l10.27,1.64,3.12,2.27-3.12,2.26-10.26,1.63ZM318.95,122.35l-2.9-2.1,3.55.57c-.2.52-.41,1.04-.65,1.54ZM309.8,115.72l-3.12-2.26,3.12-2.27,10.78-1.72c.24,1.28.38,2.59.38,3.94s-.14,2.72-.39,4.03l-10.77-1.72ZM319.63,106.09l-3.58.57,2.93-2.13c.24.51.45,1.03.65,1.56ZM280.7,104.82l2.55,1.85-3.09-.49c.17-.46.34-.91.54-1.35ZM287.88,96.14l6.19,8.53.61,3.81-3.81-.61-8.47-6.14c1.46-2.19,3.33-4.08,5.49-5.59ZM290.92,94.39c.46-.22.93-.42,1.41-.61l.52,3.27-1.93-2.67ZM299.91,92.36c1.26,0,2.49.13,3.69.34l-1.69,10.6-2.27,3.12-2.27-3.12-1.68-10.52c1.36-.28,2.76-.42,4.2-.42ZM306.99,93.6c.51.18,1.02.38,1.52.6l-2.07,2.85.55-3.45ZM317.25,101.48l-8.82,6.39-3.81.61.61-3.81,6.36-8.78c2.22,1.49,4.14,3.38,5.66,5.58ZM311.54,130.95l-6.32-8.71-.61-3.81,3.81.61,8.78,6.36c-1.52,2.19-3.44,4.08-5.66,5.55ZM308.46,132.64c-.48.22-.98.4-1.48.58l-.54-3.37,2.02,2.78ZM299.91,134.47c-1.43,0-2.83-.15-4.19-.42l1.66-10.43,2.27-3.12,2.27,3.12,1.67,10.51c-1.2.21-2.42.34-3.68.34ZM292.35,133.04c-.47-.18-.92-.38-1.38-.59l1.88-2.6-.51,3.19ZM282.43,125.15l8.43-6.12,3.81-.61-.61,3.81-6.14,8.47c-2.16-1.5-4.03-3.38-5.49-5.56Z"/>
            <path class="cls-13" d="M294.35,129.97l-2.64-1.09,3.6-4.97-.97,6.06ZM304.94,129.97l-.96-6.06,3.6,4.97-2.64,1.09ZM296.13,121.94l.94-5.91-5.9.94,4.84-3.51-4.84-3.51,5.9.94-.94-5.91,3.51,4.84,3.51-4.84-.94,5.91,5.91-.94-4.85,3.51,4.84,3.51-5.91-.94.94,5.91-3.51-4.84-3.51,4.84ZM284.22,121.39l-1.09-2.64,6.06-.96-4.97,3.6ZM315.07,121.39l-4.96-3.6,6.05.96-1.09,2.64ZM310.1,109.12l4.97-3.6,1.09,2.64-6.06.97ZM289.18,109.12l-6.05-.96,1.09-2.63,4.96,3.6ZM295.31,103l-3.6-4.97,2.64-1.09.96,6.06ZM303.98,103l.97-6.06,2.63,1.09-3.6,4.97Z"/>
            <path class="cls-12" d="M299.91,86.58c-16.06,0-29.14,12.6-29.99,28.45-.03-.54-.08-1.07-.08-1.62,0-16.61,13.46-30.07,30.07-30.07s30.07,13.46,30.07,30.07c0,.55-.05,1.08-.08,1.62-.85-15.85-13.93-28.45-29.99-28.45Z"/>
            <path class="cls-12" d="M299.91,137.68c13,0,23.58-10.2,24.27-23.02.02.44.07.87.07,1.31,0,13.44-10.89,24.33-24.33,24.33s-24.33-10.89-24.33-24.33c0-.44.04-.87.07-1.31.68,12.83,11.27,23.02,24.27,23.02Z"/>
          </g>
          <g>
            <circle class="cls-2" cx="63.6" cy="113.41" r="31.27"/>
            <path class="cls-6" d="M39.45,113.41c0,13.34,10.81,24.15,24.15,24.15s24.15-10.81,24.15-24.15-10.81-24.15-24.15-24.15-24.15,10.81-24.15,24.15ZM43.88,120.74l3.06-.49-2.52,1.82c-.2-.44-.37-.88-.54-1.34ZM42.93,117.36c-.24-1.28-.38-2.6-.38-3.94s.14-2.6.37-3.86l10.27,1.64,3.12,2.27-3.12,2.26-10.26,1.63ZM82.64,122.35l-2.9-2.1,3.55.57c-.2.52-.41,1.04-.65,1.54ZM73.49,115.72l-3.12-2.26,3.12-2.27,10.78-1.72c.24,1.28.38,2.59.38,3.94s-.14,2.72-.39,4.03l-10.77-1.72ZM83.32,106.09l-3.58.57,2.93-2.13c.24.51.45,1.03.65,1.56ZM44.39,104.82l2.55,1.85-3.09-.49c.17-.46.34-.91.54-1.35ZM51.57,96.14l6.19,8.53.61,3.81-3.81-.61-8.47-6.14c1.46-2.19,3.33-4.08,5.49-5.59ZM54.61,94.39c.46-.22.93-.42,1.41-.61l.52,3.27-1.93-2.67ZM63.6,92.36c1.92,0,1.08-.12,3.69.34l-1.69,10.6-2.27,3.12-2.27-3.12-1.68-10.52c1.36-.28,2.76-.42,4.2-.42ZM70.68,93.6c.51.18,1.02.38,1.52.6l-2.07,2.85.55-3.45ZM80.94,101.48l-8.82,6.39-3.81.61.61-3.81,6.36-8.78c2.22,1.49,4.14,3.38,5.66,5.58ZM75.23,130.95l-6.32-8.71-.61-3.81,3.81.61,8.78,6.36c-1.52,2.19-3.44,4.08-5.66,5.55ZM72.15,132.64c-.48.22-.98.4-1.48.58l-.54-3.37,2.02,2.78ZM63.6,134.47c-1.43,0-2.84-.15-4.19-.42l1.66-10.43,2.27-3.12,2.27,3.12,1.68,10.51c-1.2.21-2.42.34-3.68.34ZM56.04,133.04c-.47-.18-.92-.38-1.38-.59l1.88-2.6-.51,3.19ZM46.12,125.15l8.43-6.12,3.81-.61-.61,3.81-6.14,8.47c-2.16-1.5-4.03-3.38-5.49-5.56Z"/>
            <path class="cls-13" d="M58.04,129.97l-2.64-1.09,3.6-4.97-.97,6.06ZM68.63,129.97l-.96-6.06,3.6,4.97-2.64,1.09ZM59.83,121.94l.94-5.91-5.9.94,4.84-3.51-4.84-3.51,5.9.94-.94-5.91,3.51,4.84,3.51-4.84-.94,5.91,5.91-.94-4.85,3.51,4.84,3.51-5.91-.94.94,5.91-3.51-4.84-3.51,4.84ZM47.91,121.39l-1.09-2.64,6.06-.96-4.97,3.6ZM78.76,121.39l-4.96-3.6,6.05.96-1.09,2.64ZM73.8,109.12l4.97-3.6,1.09,2.64-6.06.97ZM52.88,109.12l-6.05-.96,1.09-2.63,4.96,3.6ZM59,103l-3.6-4.97,2.64-1.09.96,6.06ZM67.67,103l.97-6.06,2.63,1.09-3.6,4.97Z"/>
            <path class="cls-12" d="M63.6,86.58c-16.06,0-29.14,12.6-29.99,28.45-.03-.54-.08-1.07-.08-1.62,0-16.61,13.46-30.07,30.07-30.07s30.07,13.46,30.07,30.07c0,.55-.05,1.08-.08,1.62-.85-15.85-13.93-28.45-29.99-28.45Z"/>
            <path class="cls-12" d="M63.6,137.68c13,0,23.58-10.2,24.27-23.02.02.44.07.87.07,1.31,0,13.44-10.89,24.33-24.33,24.33s-24.33-10.89-24.33-24.33c0-.44.04-.87.07-1.31.68,12.83,11.27,23.02,24.27,23.02Z"/>
          </g>
        </g>
        <path class="cls-6" d="M65.53,111.32c-.09.11-.53.5-.97.85-.02.02-.05.03-.08.05-.03-.03-.06-.06-.09-.09-.09-.09-.17-.19-.26-.28-.29-.26-.63-.39-1.02-.4-.2,0-.39,0-.58.06-.48.14-.8.44-.95.91-.13.38-.13.77-.02,1.15.16.52.5.86,1.02,1,.4.11.8.1,1.2-.04.17-.06.32-.16.46-.27.09-.07.12-.15.11-.26,0-.02,0-.04-.01-.06-.05-.05-.11-.03-.17-.03-.3,0-.6,0-.9,0-.05,0-.09,0-.14,0-.03,0-.06-.01-.1-.02,0-.04-.01-.07-.01-.11,0-.35,0-.69,0-1.04,0-.02,0-.03,0-.05,0-.07.02-.09.09-.1.03,0,.05,0,.08,0,.84,0,1.68,0,2.53,0,.05,0,.09,0,.13.01.04.06.03.11.03.16,0,.31,0,.62,0,.93,0,.2,0,.4,0,.6,0,.09-.02.17-.07.25-.41.64-.97,1.07-1.69,1.31-.34.11-.68.16-1.04.16-.47,0-.92-.07-1.35-.26-.89-.4-1.48-1.06-1.73-2.01-.09-.35-.1-.71-.06-1.06.12-1.15.96-2.11,2.06-2.47.33-.11.66-.16,1.01-.16.4,0,.79.05,1.16.19.53.2.96.53,1.3.99.02.03.04.07.06.1Z"/>
      </g>
      <path class="cls-6" d="M302.46,111.76c-.09.11-.53.5-.97.85-.02.02-.05.03-.08.05-.03-.03-.06-.06-.09-.09-.09-.09-.17-.19-.26-.28-.29-.26-.63-.39-1.02-.4-.2,0-.39,0-.58.06-.48.14-.8.44-.95.91-.13.38-.13.77-.02,1.15.16.52.5.86,1.02,1,.4.11.8.1,1.2-.04.17-.06.32-.16.46-.27.09-.07.12-.15.11-.26,0-.02,0-.04-.01-.06-.05-.05-.11-.03-.17-.03-.3,0-.6,0-.9,0-.05,0-.09,0-.14,0-.03,0-.06-.01-.1-.02,0-.04-.01-.07-.01-.11,0-.35,0-.69,0-1.04,0-.02,0-.03,0-.05,0-.07.02-.09.09-.1.03,0,.05,0,.08,0,.84,0,1.68,0,2.53,0,.05,0,.09,0,.13.01.04.06.03.11.03.16,0,.31,0,.62,0,.93,0,.2,0,.4,0,.6,0,.09-.02.17-.07.25-.41.64-.97,1.07-1.69,1.31-.34.11-.68.16-1.04.16-.47,0-.92-.07-1.35-.26-.89-.4-1.48-1.06-1.73-2.01-.09-.35-.1-.71-.06-1.06.12-1.15.96-2.11,2.06-2.47.33-.11.66-.16,1.01-.16.4,0,.79.05,1.16.19.53.2.96.53,1.3.99.02.03.04.07.06.1Z"/>
      <polygon class="cls-19" points="81.8 3.09 78.41 17.97 72.58 43.55 78.42 43.92 78.43 43.92 84.06 17.72 87.18 3.23 81.8 3.09"/>
      <polygon class="cls-19" points="163.37 48.8 159.29 48.56 154.25 5 158.32 5 163.37 48.8"/>
    </g>
  </g>
</svg>